<svg width="24" height="24" viewBox="0 0 24 24" fill="none" xmlns="http://www.w3.org/2000/svg">
<path d="M15.5 2.25C15.9142 2.25001 16.25 2.5858 16.25 3V4.41699C17.8685 4.85739 19.1426 6.13153 19.583 7.75H21C21.4142 7.75001 21.75 8.08581 21.75 8.5C21.75 8.91421 21.4142 9.25 21 9.25H19.75V11.25H21C21.4141 11.2501 21.7499 11.5859 21.75 12C21.7499 12.4141 21.4141 12.7499 21 12.75H19.75V14.75H21C21.414 14.7502 21.75 15.0859 21.75 15.5C21.75 15.9141 21.414 16.2498 21 16.25H19.583C19.1426 17.8684 17.8684 19.1416 16.25 19.582V21C16.25 21.4142 15.9142 21.75 15.5 21.75C15.0858 21.75 14.75 21.4142 14.75 21V19.75H12.75V21C12.7499 21.414 12.4139 21.7498 12 21.75C11.5859 21.7499 11.2501 21.4141 11.25 21V19.75H9.25V21C9.24981 21.414 8.91408 21.75 8.5 21.75C8.08591 21.75 7.75019 21.414 7.75 21V19.582C6.13165 19.1416 4.85736 17.8684 4.41699 16.25H3C2.58582 16.25 2.25003 15.9142 2.25 15.5C2.25002 15.0858 2.5858 14.75 3 14.75H4.25V12.75H3C2.58594 12.7499 2.25009 12.414 2.25 12C2.25007 11.5859 2.5859 11.2501 3 11.25H4.25V9.25H3C2.58597 9.24979 2.25001 8.91407 2.25 8.5C2.25001 8.08591 2.58596 7.7502 3 7.75H4.41699C4.85739 6.13153 6.13153 4.85739 7.75 4.41699V3C7.75001 2.5858 8.08581 2.25001 8.5 2.25C8.91421 2.25001 9.25 2.5858 9.25 3V4.25H11.25V3C11.2501 2.58597 11.586 2.25022 12 2.25C12.4142 2.25007 12.75 2.58585 12.75 3V4.25H14.75V3C14.75 2.5858 15.0858 2.25001 15.5 2.25ZM9 5.75C7.20507 5.75 5.75 7.20507 5.75 9V15C5.75 16.7949 7.20507 18.25 9 18.25H15C16.7949 18.25 18.25 16.7949 18.25 15V9C18.25 7.20507 16.7949 5.75 15 5.75H9ZM15.1104 8.9502C15.5244 8.95039 15.8604 9.2861 15.8604 9.7002V14.2998C15.8604 14.7139 15.5244 15.0496 15.1104 15.0498C14.6961 15.0498 14.3604 14.714 14.3604 14.2998V9.7002C14.3604 9.28598 14.6961 8.9502 15.1104 8.9502ZM11.21 8.95996C11.4841 9.00432 11.716 9.19831 11.8037 9.46875L13.2939 14.0693C13.4213 14.4631 13.2052 14.8859 12.8115 15.0137C12.4175 15.1413 11.9949 14.9252 11.8672 14.5312L11.7373 14.1299H9.28418L9.1543 14.5312C9.0267 14.9252 8.60292 15.141 8.20898 15.0137C7.81524 14.8859 7.59919 14.4632 7.72656 14.0693L7.99512 13.2383C8.00622 13.1801 8.02514 13.1248 8.04883 13.0723L9.2168 9.46875L9.2627 9.3584C9.38937 9.1109 9.64603 8.9502 9.93066 8.9502H11.0908L11.21 8.95996ZM9.76953 12.6299H11.251L10.5449 10.4502H10.4756L9.76953 12.6299Z" fill="#122232"/>
</svg>
