<svg width="24" height="24" viewBox="0 0 24 24" fill="none" xmlns="http://www.w3.org/2000/svg">
<path d="M10.3255 4.31701C10.7515 2.56101 13.2495 2.56101 13.6755 4.31701C13.7394 4.58081 13.8647 4.82579 14.0412 5.03201C14.2177 5.23823 14.4404 5.39987 14.6911 5.50376C14.9419 5.60765 15.2137 5.65086 15.4843 5.62988C15.7549 5.6089 16.0167 5.52432 16.2485 5.38301C17.7915 4.44301 19.5585 6.20901 18.6185 7.75301C18.4774 7.98467 18.3929 8.24635 18.372 8.51679C18.3511 8.78722 18.3942 9.05878 18.498 9.30939C18.6018 9.56 18.7632 9.78259 18.9692 9.95906C19.1752 10.1355 19.4199 10.2609 19.6835 10.325C21.4395 10.751 21.4395 13.249 19.6835 13.675C19.4197 13.7389 19.1747 13.8642 18.9685 14.0407C18.7623 14.2172 18.6006 14.4399 18.4967 14.6907C18.3928 14.9414 18.3496 15.2132 18.3706 15.4838C18.3916 15.7544 18.4762 16.0163 18.6175 16.248C19.5575 17.791 17.7915 19.558 16.2475 18.618C16.0158 18.4769 15.7541 18.3925 15.4837 18.3715C15.2133 18.3506 14.9417 18.3938 14.6911 18.4975C14.4405 18.6013 14.2179 18.7628 14.0414 18.9687C13.865 19.1747 13.7396 19.4194 13.6755 19.683C13.2495 21.439 10.7515 21.439 10.3255 19.683C10.2616 19.4192 10.1363 19.1742 9.95978 18.968C9.78329 18.7618 9.5606 18.6002 9.30984 18.4963C9.05907 18.3924 8.78732 18.3492 8.5167 18.3701C8.24608 18.3911 7.98424 18.4757 7.75249 18.617C6.20949 19.557 4.44249 17.791 5.38249 16.247C5.52359 16.0154 5.60804 15.7537 5.62897 15.4832C5.6499 15.2128 5.60673 14.9412 5.50296 14.6906C5.39919 14.44 5.23775 14.2174 5.03176 14.041C4.82577 13.8645 4.58105 13.7391 4.31749 13.675C2.56149 13.249 2.56149 10.751 4.31749 10.325C4.58129 10.2611 4.82627 10.1358 5.03249 9.9593C5.23871 9.78281 5.40034 9.56012 5.50423 9.30936C5.60813 9.0586 5.65134 8.78685 5.63036 8.51623C5.60937 8.24561 5.52479 7.98376 5.38349 7.75201C4.44349 6.20901 6.20949 4.44201 7.75349 5.38201C8.75349 5.99001 10.0495 5.45201 10.3255 4.31701Z" stroke="#122232" stroke-width="1.5" stroke-linecap="round" stroke-linejoin="round"/>
<path d="M10.0005 9.00001V15L15.0005 12L10.0005 9.00001Z" stroke="#122232" stroke-width="1.5" stroke-linecap="round" stroke-linejoin="round"/>
</svg>
