<svg width="24" height="24" viewBox="0 0 24 24" fill="none" xmlns="http://www.w3.org/2000/svg">
<path d="M18.0034 12.7828C13.6756 13.3528 9.33125 13.3528 5.00342 12.7828" stroke="#122232" stroke-width="1.5" stroke-linecap="round" stroke-linejoin="round"/>
<path d="M21.0034 12.4965C21.0034 17.7432 16.7501 21.9965 11.5034 21.9965C6.25671 21.9965 2.00342 17.7432 2.00342 12.4965C2.00342 7.24982 6.25671 2.99653 11.5034 2.99653" stroke="#122232" stroke-width="1.5" stroke-linecap="round" stroke-linejoin="round"/>
<path fill-rule="evenodd" clip-rule="evenodd" d="M19.6613 2.38596L20.2116 3.39169C20.3034 3.55932 20.4412 3.69714 20.6089 3.78885L21.6144 4.33902C21.8549 4.47058 22.0044 4.72282 22.0044 4.9969C22.0044 5.27097 21.8549 5.52321 21.6144 5.65477L20.61 6.20439C20.4424 6.29605 20.3047 6.43376 20.2129 6.60124L19.6611 7.60875C19.5295 7.84907 19.2773 7.9984 19.0033 7.9984C18.7293 7.9984 18.4771 7.84884 18.3456 7.60847L17.7956 6.6032C17.7039 6.43568 17.5662 6.29791 17.3987 6.20618L16.3916 5.65463C16.1513 5.523 16.002 5.27078 16.002 4.99678C16.002 4.72278 16.1515 4.47062 16.3919 4.33908L17.3984 3.78834C17.566 3.69662 17.7038 3.5588 17.7956 3.39118L18.3456 2.38599C18.4771 2.14556 18.7293 1.99604 19.0034 1.99604C19.2775 1.99604 19.5297 2.14554 19.6613 2.38596Z" stroke="#122232" stroke-width="1.5" stroke-linecap="round" stroke-linejoin="round"/>
<path fill-rule="evenodd" clip-rule="evenodd" d="M13.8673 9.99653C12.4492 9.99653 12.4492 10.5705 11.5034 10.5705C10.5577 10.5705 10.5577 9.99653 9.13958 9.99653C6.77575 9.99653 6.86458 12.5675 5.00342 12.8665C6.86025 13.4255 6.86025 15.9965 11.5034 15.9965C16.1466 15.9965 16.1466 13.4255 18.0034 12.8665C16.1466 12.5675 16.2311 9.99653 13.8673 9.99653Z" stroke="#122232" stroke-width="1.5" stroke-linecap="round" stroke-linejoin="round"/>
</svg>
