<svg width="20" height="20" viewBox="0 0 20 20" fill="none" xmlns="http://www.w3.org/2000/svg">
<path d="M8.54417 0.640272C7.20004 1.41281 7.11073 1.47086 6.99016 1.60929C6.86513 1.76112 6.80708 1.99333 6.8428 2.18535C6.8562 2.2568 6.9723 2.54259 7.09734 2.82392L7.32508 3.33746L7.15985 3.57859C7.07054 3.71256 6.93211 3.9537 6.84727 4.11892C6.67758 4.4583 6.74009 4.42705 5.95863 4.51636C5.43169 4.57441 5.25754 4.64586 5.10571 4.86467L4.99854 5.02543V6.43207V7.83871L5.10571 7.99947C5.25754 8.21828 5.43169 8.28973 5.95863 8.34778C6.74456 8.4371 6.67311 8.40137 6.86959 8.78987C7.06608 9.18284 7.5037 9.79015 7.71358 9.96877C8.07975 10.2724 8.65581 10.1429 8.86122 9.70977C8.97286 9.4731 8.93267 9.16051 8.76745 8.9551C8.44593 8.5532 8.20479 8.16916 8.07975 7.86104C7.78056 7.11976 7.72251 7.07511 7.01696 6.9858C6.75349 6.95454 6.51235 6.92774 6.48556 6.92328C6.4409 6.92328 6.42751 6.79378 6.42751 6.43207C6.42751 6.07036 6.4409 5.94086 6.48556 5.94086C6.51235 5.9364 6.74902 5.9096 7.00803 5.87834C7.70911 5.7935 7.79843 5.72652 8.01277 5.15493C8.15567 4.77536 8.35662 4.42705 8.60669 4.11892C8.97733 3.66344 9.00412 3.44463 8.74958 2.88197C8.6692 2.71228 8.58883 2.52919 8.5665 2.47114C8.52631 2.36843 8.49951 2.39076 9.22293 1.96207L9.36136 1.87723L9.65609 2.27912C10.0625 2.82838 10.1428 2.87304 10.6251 2.83285C11.1119 2.78819 11.6522 2.78819 12.188 2.83285C12.7239 2.87304 12.7864 2.83732 13.2017 2.27912C13.4786 1.89955 13.5009 1.88169 13.5902 1.93528C13.6438 1.971 13.818 2.07371 13.9832 2.16302C14.1484 2.2568 14.2958 2.34611 14.3092 2.36843C14.3181 2.3863 14.2377 2.60957 14.1261 2.85964C13.8805 3.40444 13.8716 3.63665 14.0904 3.90904C14.4119 4.31094 14.653 4.69498 14.7781 5.0031C15.0772 5.74438 15.1353 5.78903 15.8409 5.87834C16.1043 5.9096 16.3455 5.9364 16.3767 5.94086C16.4169 5.94086 16.4303 6.07036 16.4303 6.43207C16.4303 6.79378 16.4169 6.92328 16.3767 6.92328C16.0329 6.93221 15.3407 7.06171 15.2157 7.13762C15.0371 7.24926 14.9879 7.32518 14.845 7.70921C14.7021 8.08432 14.5012 8.4371 14.2601 8.73182C14.01 9.03994 13.9296 9.20517 13.9296 9.40165C13.9296 9.90179 14.4387 10.259 14.9254 10.0938C15.1978 10.0045 15.6801 9.40165 16.0239 8.72289C16.1802 8.4103 16.1222 8.4371 16.8947 8.35225C17.4127 8.29866 17.6003 8.21828 17.7521 7.99947L17.8593 7.83871V6.43207V5.02543L17.7521 4.86467C17.6003 4.64586 17.4127 4.56548 16.8947 4.51189C16.1177 4.42705 16.1802 4.45384 16.0105 4.11892C15.9257 3.9537 15.7873 3.71256 15.698 3.57859L15.5327 3.33746L15.7649 2.81945C16.0239 2.23447 16.0686 2.01566 15.9704 1.77898C15.8766 1.55571 15.7381 1.45747 14.5548 0.774239L13.5054 0.171391L13.2553 0.189253C13.1169 0.198184 12.9472 0.24284 12.8847 0.287495C12.8177 0.327684 12.6078 0.577755 12.4158 0.841221L12.063 1.31903L11.4289 1.31457L10.7948 1.3101L10.4286 0.823359C10.0312 0.287495 9.88383 0.180322 9.54891 0.180322C9.37029 0.180322 9.24079 0.238374 8.54417 0.640272Z" fill="#122232"/>
<path d="M10.6474 3.6585C9.68282 3.93537 8.88796 4.74363 8.64235 5.69925C8.54858 6.06096 8.54858 6.80224 8.64235 7.16395C8.89689 8.14637 9.74981 8.99482 10.7188 9.22256C11.085 9.30741 11.7727 9.30741 12.1389 9.22256C12.8801 9.0484 13.608 8.47682 13.9608 7.79359C14.2064 7.31578 14.2868 6.98533 14.2868 6.4316C14.2868 5.87787 14.2064 5.54743 13.9608 5.06961C13.6125 4.39532 12.9069 3.83713 12.1612 3.64511C11.7861 3.54687 11.0046 3.5558 10.6474 3.6585ZM12.0451 5.17679C12.2862 5.30182 12.5586 5.56975 12.6881 5.81536C12.773 5.97612 12.7908 6.07436 12.7908 6.4316C12.7908 6.91834 12.7149 7.11036 12.4113 7.41402C12.1076 7.71767 11.9156 7.79359 11.4288 7.79359C11.0716 7.79359 10.9734 7.77573 10.8126 7.69088C10.567 7.55692 10.2991 7.28898 10.174 7.04784C10.0535 6.81564 10.0133 6.3155 10.0847 6.0431C10.1919 5.6412 10.6027 5.21251 11.0002 5.09194C11.2413 5.01603 11.8307 5.06515 12.0451 5.17679Z" fill="#122232"/>
<path d="M7.54383 10.7502C7.22232 10.7993 6.58821 10.969 6.30688 11.0807C6.12826 11.1521 5.62365 11.3888 5.18157 11.6121L4.3733 12.0139L4.31079 11.8666C4.27953 11.7907 4.18575 11.6656 4.10984 11.5942C3.9982 11.487 3.92229 11.4602 3.70347 11.4424C3.44447 11.4245 3.38642 11.4424 1.90386 12.0407C1.06434 12.3757 0.323065 12.6927 0.260547 12.7374C-0.00738503 12.916 -0.0922302 13.434 0.0997878 13.7109C0.260547 13.952 0.416841 14.0413 0.680307 14.0413C0.876791 14.0458 1.08667 13.9743 1.99764 13.6037C2.61835 13.3536 3.10063 13.1795 3.12295 13.2018C3.14082 13.2241 3.42215 14.2333 3.74813 15.4479C4.22148 17.2208 4.32418 17.6584 4.27953 17.6896C4.2438 17.712 3.84637 17.9219 3.39089 18.1585C2.9354 18.3952 2.49778 18.6408 2.4174 18.6989C2.22092 18.8462 2.14054 19.0204 2.14054 19.3062C2.14054 19.7527 2.44419 20.0296 2.89968 19.9939C3.11402 19.9805 3.30158 19.8956 4.35098 19.3374C5.01634 18.9891 5.61026 18.6631 5.67277 18.6185C5.86033 18.4845 5.94964 18.2478 5.92284 17.9576C5.90945 17.8191 5.88712 17.6718 5.86926 17.6316C5.84246 17.5691 5.98983 17.4798 6.69538 17.127L7.5483 16.6983L9.05318 17.1225C9.87931 17.3547 10.6786 17.5691 10.8215 17.5914C11.3976 17.6941 12.1121 17.6271 12.6881 17.4128C12.831 17.3592 14.3672 16.5465 16.1043 15.6087C19.574 13.7287 19.5829 13.7242 19.833 13.1928C20.2304 12.3444 19.8955 11.3397 19.0738 10.9244C18.797 10.7859 18.3862 10.7011 18.1182 10.7323C18.0021 10.7457 17.1179 10.9735 16.1579 11.2414C14.5145 11.6924 14.4029 11.7148 14.3582 11.6388C14.1216 11.2414 13.8492 11.0092 13.4071 10.8261L13.1481 10.7189L10.4018 10.7279C8.89242 10.7279 7.60635 10.7368 7.54383 10.7502ZM12.8757 12.2104C13.1927 12.3399 13.157 12.7731 12.8266 12.8535C12.7328 12.8803 12.0942 12.9428 11.4065 12.9964C10.7188 13.05 10.0847 13.1125 9.99988 13.1348C9.6471 13.2196 9.41043 13.6617 9.51313 14.0324C9.57565 14.269 9.81233 14.5013 10.0311 14.5414C10.2499 14.5816 13.0141 14.3494 13.2954 14.269C13.7241 14.1395 14.1082 13.8225 14.3716 13.3759C14.4475 13.2464 14.5145 13.2241 16.3767 12.715C18.4397 12.1479 18.4487 12.1479 18.5112 12.398C18.5335 12.4873 18.5156 12.5364 18.4353 12.6168C18.2879 12.7552 12.3443 15.9615 12.0496 16.0642C11.8843 16.1178 11.6789 16.1446 11.4065 16.1446C11.0314 16.1401 10.8841 16.1088 9.31219 15.6623C8.38335 15.3988 7.5483 15.1845 7.45899 15.1845C7.34735 15.1845 7.02583 15.3184 6.38279 15.6266C5.87819 15.8722 5.46289 16.0642 5.45396 16.0553C5.43164 16.0374 4.7752 13.5724 4.7752 13.5144C4.7752 13.4474 6.69985 12.5007 7.07495 12.3757C7.6912 12.1747 7.83856 12.1658 10.5268 12.1568C12.3175 12.1479 12.7551 12.1613 12.8757 12.2104Z" fill="#122232"/>
</svg>
