<svg width="24" height="24" viewBox="0 0 24 24" fill="none" xmlns="http://www.w3.org/2000/svg">
<path d="M8.99988 5.00003H6.99988C6.46944 5.00003 5.96074 5.21074 5.58566 5.58581C5.21059 5.96089 4.99988 6.4696 4.99988 7.00003V19C4.99988 19.5305 5.21059 20.0392 5.58566 20.4142C5.96074 20.7893 6.46944 21 6.99988 21H16.9999C17.5303 21 18.039 20.7893 18.4141 20.4142C18.7892 20.0392 18.9999 19.5305 18.9999 19V7.00003C18.9999 6.4696 18.7892 5.96089 18.4141 5.58581C18.039 5.21074 17.5303 5.00003 16.9999 5.00003H14.9999M8.99988 5.00003C8.99988 4.4696 9.21059 3.96089 9.58566 3.58581C9.96074 3.21074 10.4694 3.00003 10.9999 3.00003H12.9999C13.5303 3.00003 14.039 3.21074 14.4141 3.58581C14.7892 3.96089 14.9999 4.4696 14.9999 5.00003M8.99988 5.00003C8.99988 5.53046 9.21059 6.03917 9.58566 6.41424C9.96074 6.78931 10.4694 7.00003 10.9999 7.00003H12.9999C13.5303 7.00003 14.039 6.78931 14.4141 6.41424C14.7892 6.03917 14.9999 5.53046 14.9999 5.00003M8.99988 17V12M11.9999 17V16M14.9999 17V14" stroke="#122232" stroke-width="1.5" stroke-linecap="round" stroke-linejoin="round"/>
</svg>
