<svg width="24" height="24" viewBox="0 0 24 24" fill="none" xmlns="http://www.w3.org/2000/svg">
<path fill-rule="evenodd" clip-rule="evenodd" d="M12 11V4.00743C12 3.72016 12.1227 3.44658 12.3373 3.25558C12.5519 3.06458 12.8378 2.97435 13.1232 3.00762C17.2371 3.52263 20.4773 6.76291 20.9924 10.8768C21.0256 11.1621 20.9354 11.4481 20.7444 11.6627C20.5534 11.8772 20.2798 12 19.9925 12H13C12.4477 12 12 11.5523 12 11Z" stroke="#122232" stroke-width="1.5" stroke-linecap="round" stroke-linejoin="round"/>
<path d="M7.99995 4.76019C4.55533 6.31545 2.55218 9.95911 3.0847 13.7009C3.61721 17.4426 6.55736 20.3827 10.2991 20.9152C14.0408 21.4478 17.6845 19.4446 19.2398 16" stroke="#122232" stroke-width="1.5" stroke-linecap="round" stroke-linejoin="round"/>
</svg>
