<svg width="24" height="24" viewBox="0 0 24 24" fill="none" xmlns="http://www.w3.org/2000/svg">
<path d="M18.062 9L17.986 7.867C17.916 6.816 17.044 6 15.991 6H5.73302C4.68002 6 3.80802 6.816 3.73802 7.867L3.00502 18.868C2.92802 20.022 3.84302 21 5.00002 21H6.00002" stroke="#122232" stroke-width="1.5" stroke-linecap="round" stroke-linejoin="round"/>
<path d="M7.86206 6V5C7.86206 3.343 9.20506 2 10.8621 2V2C12.5191 2 13.8621 3.343 13.8621 5V6" stroke="#122232" stroke-width="1.5" stroke-linecap="round" stroke-linejoin="round"/>
<path fill-rule="evenodd" clip-rule="evenodd" d="M10.714 12H19.714C20.425 12 21 12.575 21 13.286V19.715C21 20.425 20.425 21 19.714 21H10.714C10.004 21 9.42798 20.425 9.42798 19.714V13.285C9.42898 12.575 10.004 12 10.714 12V12Z" stroke="#122232" stroke-width="1.5" stroke-linecap="round" stroke-linejoin="round"/>
<path d="M12.964 15C12.964 16.243 13.971 17.25 15.214 17.25C16.457 17.25 17.464 16.243 17.464 15" stroke="#122232" stroke-width="1.5" stroke-linecap="round" stroke-linejoin="round"/>
</svg>
