<svg width="24" height="24" viewBox="0 0 24 24" fill="none" xmlns="http://www.w3.org/2000/svg">
<path d="M2.99988 21H8.99988M8.99988 8.00001H9.99988M8.99988 12H9.99988M8.99988 16H9.99988M13.9999 8.00001H14.9999M13.9999 12H14.9999M13.9999 16H14.9999M4.99988 21V5.00001C4.99988 4.46958 5.21059 3.96087 5.58566 3.5858C5.96074 3.21073 6.46944 3.00001 6.99988 3.00001H16.9999C17.5303 3.00001 18.039 3.21073 18.4141 3.5858C18.7892 3.96087 18.9999 4.46958 18.9999 5.00001V13" stroke="#122232" stroke-width="1.5" stroke-linecap="round" stroke-linejoin="round"/>
<path d="M12.9999 22L15.9999 19L17.9999 21L21.9999 17M21.9999 17H18.9999M21.9999 17V20" stroke="#122232" stroke-width="1.5" stroke-linecap="round" stroke-linejoin="round"/>
</svg>
