<svg width="24" height="24" viewBox="0 0 24 24" fill="none" xmlns="http://www.w3.org/2000/svg">
<path d="M16.5714 16.5294L18.8571 4.23529L14.2857 8.70588L12 3.11765L9.71429 8.70588L5.14286 4.23529L7.42857 16.5294M16.5714 16.5294L18.2251 17.3386C18.415 17.4313 18.5746 17.5739 18.6862 17.7504C18.7978 17.9269 18.857 18.1303 18.8571 18.3378V21H5.14286V18.3378C5.14297 18.1303 5.20215 17.9269 5.31377 17.7504C5.4254 17.5739 5.58505 17.4313 5.77486 17.3386L7.42857 16.5294M16.5714 16.5294H7.42857M10.8571 3.11765C10.8571 3.41407 10.9776 3.69834 11.1919 3.90794C11.4062 4.11754 11.6969 4.23529 12 4.23529C12.3031 4.23529 12.5938 4.11754 12.8081 3.90794C13.0224 3.69834 13.1429 3.41407 13.1429 3.11765C13.1429 2.82123 13.0224 2.53695 12.8081 2.32735C12.5938 2.11775 12.3031 2 12 2C11.6969 2 11.4062 2.11775 11.1919 2.32735C10.9776 2.53695 10.8571 2.82123 10.8571 3.11765ZM4 4.23529C4 4.53171 4.12041 4.81599 4.33474 5.02559C4.54906 5.23519 4.83975 5.35294 5.14286 5.35294C5.44596 5.35294 5.73665 5.23519 5.95098 5.02559C6.16531 4.81599 6.28571 4.53171 6.28571 4.23529C6.28571 3.93888 6.16531 3.6546 5.95098 3.445C5.73665 3.2354 5.44596 3.11765 5.14286 3.11765C4.83975 3.11765 4.54906 3.2354 4.33474 3.445C4.12041 3.6546 4 3.93888 4 4.23529ZM17.7143 4.23529C17.7143 4.53171 17.8347 4.81599 18.049 5.02559C18.2633 5.23519 18.554 5.35294 18.8571 5.35294C19.1602 5.35294 19.4509 5.23519 19.6653 5.02559C19.8796 4.81599 20 4.53171 20 4.23529C20 3.93888 19.8796 3.6546 19.6653 3.445C19.4509 3.2354 19.1602 3.11765 18.8571 3.11765C18.554 3.11765 18.2633 3.2354 18.049 3.445C17.8347 3.6546 17.7143 3.93888 17.7143 4.23529Z" stroke="#122232" stroke-width="1.5" stroke-linecap="round" stroke-linejoin="round"/>
</svg>
