<svg width="24" height="24" viewBox="0 0 24 24" fill="none" xmlns="http://www.w3.org/2000/svg">
<path d="M12 3V5.8125C12 5.96168 11.9407 6.10476 11.8352 6.21025C11.7298 6.31574 11.5867 6.375 11.4375 6.375C10.9899 6.375 10.5607 6.55279 10.2443 6.86926C9.92779 7.18572 9.75 7.61495 9.75 8.0625C9.75 8.51005 9.92779 8.93928 10.2443 9.25574C10.5607 9.57221 10.9899 9.75 11.4375 9.75C11.5867 9.75 11.7298 9.80926 11.8352 9.91475C11.9407 10.0202 12 10.1633 12 10.3125V12M12 12V13.6875C12 13.8367 12.0593 13.9798 12.1648 14.0852C12.2702 14.1907 12.4133 14.25 12.5625 14.25C13.0101 14.25 13.4393 14.4278 13.7557 14.7443C14.0722 15.0607 14.25 15.4899 14.25 15.9375C14.25 16.3851 14.0722 16.8143 13.7557 17.1307C13.4393 17.4472 13.0101 17.625 12.5625 17.625C12.4133 17.625 12.2702 17.6843 12.1648 17.7898C12.0593 17.8952 12 18.0383 12 18.1875V21M12 12H13.6875C13.8367 12 13.9798 11.9407 14.0852 11.8352C14.1907 11.7298 14.25 11.5867 14.25 11.4375C14.25 10.9899 14.4278 10.5607 14.7443 10.2443C15.0607 9.92779 15.4899 9.75 15.9375 9.75C16.3851 9.75 16.8143 9.92779 17.1307 10.2443C17.4472 10.5607 17.625 10.9899 17.625 11.4375C17.625 11.5867 17.6843 11.7298 17.7898 11.8352C17.8952 11.9407 18.0383 12 18.1875 12H21M12 12H10.3125C10.1633 12 10.0202 12.0593 9.91475 12.1648C9.80926 12.2702 9.75 12.4133 9.75 12.5625C9.75 13.0101 9.57221 13.4393 9.25574 13.7557C8.93928 14.0722 8.51005 14.25 8.0625 14.25C7.61495 14.25 7.18572 14.0722 6.86926 13.7557C6.55279 13.4393 6.375 13.0101 6.375 12.5625C6.375 12.4133 6.31574 12.2702 6.21025 12.1648C6.10476 12.0593 5.96168 12 5.8125 12H3M3 5.25C3 4.65326 3.23705 4.08097 3.65901 3.65901C4.08097 3.23705 4.65326 3 5.25 3H18.75C19.3467 3 19.919 3.23705 20.341 3.65901C20.7629 4.08097 21 4.65326 21 5.25V18.75C21 19.3467 20.7629 19.919 20.341 20.341C19.919 20.7629 19.3467 21 18.75 21H5.25C4.65326 21 4.08097 20.7629 3.65901 20.341C3.23705 19.919 3 19.3467 3 18.75V5.25Z" stroke="#122232" stroke-width="1.5" stroke-linecap="round" stroke-linejoin="round"/>
</svg>
