<svg width="24" height="24" viewBox="0 0 24 24" fill="none" xmlns="http://www.w3.org/2000/svg">
<path fill-rule="evenodd" clip-rule="evenodd" d="M19.003 21.0037H4.99717C4.46647 21.0037 3.95747 20.7931 3.58221 20.4179C3.20695 20.0426 2.99634 19.5336 2.99634 19.0029V4.99708C2.99634 4.46638 3.20695 3.95738 3.58221 3.58212C3.95747 3.20686 4.46647 2.99625 4.99717 2.99625H19.003C19.5337 2.99625 20.0427 3.20686 20.418 3.58212C20.7932 3.95738 21.0038 4.46638 21.0038 4.99708V19.0029C21.0038 19.5336 20.7932 20.0426 20.418 20.4179C20.0427 20.7931 19.5337 21.0037 19.003 21.0037Z" stroke="#122232" stroke-width="1.5" stroke-linecap="round" stroke-linejoin="round"/>
<path d="M2.99634 6.99792H21.0038" stroke="#122232" stroke-width="1.5" stroke-linecap="round" stroke-linejoin="round"/>
<path d="M5.99756 9.99917H6.99798" stroke="#122232" stroke-width="1.5" stroke-linecap="round" stroke-linejoin="round"/>
<path d="M5.99756 13.0004H6.99798" stroke="#122232" stroke-width="1.5" stroke-linecap="round" stroke-linejoin="round"/>
<path d="M5.99756 16.0017H6.99798" stroke="#122232" stroke-width="1.5" stroke-linecap="round" stroke-linejoin="round"/>
<path d="M9.99923 6.99791V21.0037" stroke="#122232" stroke-width="1.5" stroke-linecap="round" stroke-linejoin="round"/>
</svg>
