<svg width="24" height="24" viewBox="0 0 24 24" fill="none" xmlns="http://www.w3.org/2000/svg">
<path d="M11.25 16.5C10.922 16.5 10.598 16.483 10.28 16.45C7.108 16.118 4.43 14.135 2.25 10.5C4.65 6.5 7.65 4.5 11.25 4.5C14.715 4.5 17.624 6.353 19.977 10.058M19.45 18.7002L21.25 20.5002M9.25 10.5C9.25 11.0304 9.46071 11.5391 9.83579 11.9142C10.2109 12.2893 10.7196 12.5 11.25 12.5C11.7804 12.5 12.2891 12.2893 12.6642 11.9142C13.0393 11.5391 13.25 11.0304 13.25 10.5C13.25 9.96957 13.0393 9.46086 12.6642 9.08579C12.2891 8.71071 11.7804 8.5 11.25 8.5C10.7196 8.5 10.2109 8.71071 9.83579 9.08579C9.46071 9.46086 9.25 9.96957 9.25 10.5ZM14.25 16.5C14.25 17.2956 14.5661 18.0587 15.1287 18.6213C15.6913 19.1839 16.4544 19.5 17.25 19.5C18.0456 19.5 18.8087 19.1839 19.3713 18.6213C19.9339 18.0587 20.25 17.2956 20.25 16.5C20.25 15.7044 19.9339 14.9413 19.3713 14.3787C18.8087 13.8161 18.0456 13.5 17.25 13.5C16.4544 13.5 15.6913 13.8161 15.1287 14.3787C14.5661 14.9413 14.25 15.7044 14.25 16.5Z" stroke="#122232" stroke-width="1.5" stroke-linecap="round" stroke-linejoin="round"/>
</svg>
