<svg width="24" height="24" viewBox="0 0 24 24" fill="none" xmlns="http://www.w3.org/2000/svg">
<path d="M6.99949 9.99997H9.99949V6.99997L6.49949 3.49997C7.61912 2.96524 8.87699 2.79077 10.0999 3.00059C11.3228 3.21041 12.4506 3.79419 13.3279 4.67154C14.2053 5.5489 14.789 6.67667 14.9989 7.89957C15.2087 9.12247 15.0342 10.3803 14.4995 11.5L20.4995 17.5C20.8973 17.8978 21.1208 18.4374 21.1208 19C21.1208 19.5626 20.8973 20.1021 20.4995 20.5C20.1017 20.8978 19.5621 21.1213 18.9995 21.1213C18.4369 21.1213 17.8973 20.8978 17.4995 20.5L11.4995 14.5C10.3799 15.0347 9.12199 15.2092 7.89909 14.9993C6.67619 14.7895 5.54842 14.2058 4.67106 13.3284C3.79371 12.451 3.20993 11.3233 3.00011 10.1004C2.79029 8.87747 2.96476 7.6196 3.49949 6.49997L6.99949 9.99997Z" stroke="#122232" stroke-width="1.5" stroke-linecap="round" stroke-linejoin="round"/>
</svg>
