<svg width="24" height="24" viewBox="0 0 24 24" fill="none" xmlns="http://www.w3.org/2000/svg">
<path d="M10.866 5.495C10.863 5.495 10.861 5.497 10.861 5.5C10.861 5.503 10.863 5.505 10.866 5.505C10.869 5.505 10.871 5.503 10.871 5.5C10.871 5.497 10.869 5.495 10.866 5.495" stroke="#122232" stroke-width="1.5" stroke-linecap="round" stroke-linejoin="round"/>
<path d="M8.32703 5.495C8.32403 5.495 8.32203 5.497 8.32203 5.5C8.32203 5.503 8.32403 5.505 8.32703 5.505C8.33003 5.505 8.33203 5.503 8.33203 5.5C8.33203 5.497 8.33003 5.495 8.32703 5.495" stroke="#122232" stroke-width="1.5" stroke-linecap="round" stroke-linejoin="round"/>
<path d="M5.77905 5.49C5.77605 5.49 5.77405 5.492 5.77405 5.495C5.77405 5.498 5.77605 5.5 5.77905 5.5C5.78205 5.5 5.78405 5.498 5.78405 5.495C5.78405 5.492 5.78205 5.49 5.77905 5.49" stroke="#122232" stroke-width="1.5" stroke-linecap="round" stroke-linejoin="round"/>
<path d="M3 8H21" stroke="#122232" stroke-width="1.5" stroke-linecap="round" stroke-linejoin="round"/>
<path d="M21 10V5C21 3.895 20.105 3 19 3H5C3.895 3 3 3.895 3 5V18C3 19.105 3.895 20 5 20H9" stroke="#122232" stroke-width="1.5" stroke-linecap="round" stroke-linejoin="round"/>
<path d="M21 21L19.02 19.02" stroke="#122232" stroke-width="1.5" stroke-linecap="round" stroke-linejoin="round"/>
<path d="M15.834 20.334C13.349 20.334 11.334 18.319 11.334 15.834C11.334 13.349 13.349 11.334 15.834 11.334C18.32 11.334 20.334 13.349 20.334 15.834C20.334 18.319 18.32 20.334 15.834 20.334" stroke="#122232" stroke-width="1.5" stroke-linecap="round" stroke-linejoin="round"/>
<path d="M15.084 15.084L15.834 14.333V17.334" stroke="#122232" stroke-width="1.5" stroke-linecap="round" stroke-linejoin="round"/>
<path d="M15.087 17.337H16.581" stroke="#122232" stroke-width="1.5" stroke-linecap="round" stroke-linejoin="round"/>
</svg>
