<svg width="20" height="20" viewBox="0 0 20 20" fill="none" xmlns="http://www.w3.org/2000/svg">
<path d="M18 6.25C18.9662 6.25 19.75 7.03379 19.75 8V18C19.75 18.9662 18.9662 19.75 18 19.75H8C7.03379 19.75 6.25 18.9662 6.25 18V16C6.25 15.0338 7.03379 14.25 8 14.25H10.25V12C10.25 11.0338 11.0338 10.25 12 10.25H14.25V8C14.25 7.03379 15.0338 6.25 16 6.25H18ZM16 7.75C15.8622 7.75 15.75 7.86221 15.75 8V11C15.75 11.4142 15.4142 11.75 15 11.75H12C11.8622 11.75 11.75 11.8622 11.75 12V15C11.75 15.4142 11.4142 15.75 11 15.75H8C7.86221 15.75 7.75 15.8622 7.75 16V18C7.75 18.1378 7.86221 18.25 8 18.25H18C18.1378 18.25 18.25 18.1378 18.25 18V8C18.25 7.86221 18.1378 7.75 18 7.75H16ZM4.8457 8.4043C5.81192 8.4043 6.5957 9.18808 6.5957 10.1543V12C6.5957 12.9662 5.81192 13.75 4.8457 13.75H3C2.03379 13.75 1.25 12.9662 1.25 12V10.1543C1.25 9.18808 2.03379 8.4043 3 8.4043H4.8457ZM3 9.9043C2.86221 9.9043 2.75 10.0165 2.75 10.1543V12C2.75 12.1378 2.86221 12.25 3 12.25H4.8457C4.98349 12.25 5.0957 12.1378 5.0957 12V10.1543C5.0957 10.0165 4.98349 9.9043 4.8457 9.9043H3ZM11 3.25C11.9662 3.25 12.75 4.03379 12.75 5V7C12.75 7.96621 11.9662 8.75 11 8.75H9C8.03379 8.75 7.25 7.96621 7.25 7V5C7.25 4.03379 8.03379 3.25 9 3.25H11ZM9 4.75C8.86221 4.75 8.75 4.86221 8.75 5V7C8.75 7.13779 8.86221 7.25 9 7.25H11C11.1378 7.25 11.25 7.13779 11.25 7V5C11.25 4.86221 11.1378 4.75 11 4.75H9ZM4 0.25C4.96621 0.25 5.75 1.03379 5.75 2V4C5.75 4.96621 4.96621 5.75 4 5.75H2C1.03379 5.75 0.25 4.96621 0.25 4V2C0.25 1.03379 1.03379 0.25 2 0.25H4ZM2 1.75C1.86221 1.75 1.75 1.86221 1.75 2V4C1.75 4.13779 1.86221 4.25 2 4.25H4C4.13779 4.25 4.25 4.13779 4.25 4V2C4.25 1.86221 4.13779 1.75 4 1.75H2Z" fill="#122232"/>
</svg>
