<svg width="24" height="24" viewBox="0 0 24 24" fill="none" xmlns="http://www.w3.org/2000/svg">
<path d="M3 3.5H21" stroke="#122232" stroke-width="1.5" stroke-linecap="round" stroke-linejoin="round"/>
<path d="M5 3.5V19.139C5 19.891 5.609 20.5 6.361 20.5H17.64C18.391 20.5 19.001 19.891 19.001 19.139V3.5" stroke="#122232" stroke-width="1.5" stroke-linecap="round" stroke-linejoin="round"/>
<path d="M12 7V8.25" stroke="#122232" stroke-width="1.5" stroke-linecap="round" stroke-linejoin="round"/>
<path d="M12 17V15.75" stroke="#122232" stroke-width="1.5" stroke-linecap="round" stroke-linejoin="round"/>
<path d="M14.487 10C14.422 9.024 13.617 8.25 12.625 8.25H11.255C10.285 8.25 9.5 9.036 9.5 10.005C9.5 10.81 10.048 11.512 10.828 11.708L13.171 12.296C13.952 12.492 14.499 13.194 14.499 13.999C14.499 14.969 13.713 15.754 12.744 15.754H11.374C10.38 15.754 9.575 14.978 9.511 14" stroke="#122232" stroke-width="1.5" stroke-linecap="round" stroke-linejoin="round"/>
</svg>
