<svg width="24" height="24" viewBox="0 0 24 24" fill="none" xmlns="http://www.w3.org/2000/svg">
<path fill-rule="evenodd" clip-rule="evenodd" d="M14.5012 20.5035V20.0974C14.5045 18.9418 15.4405 18.0058 16.5961 18.0025H19.9095C21.0651 18.0058 22.001 18.9418 22.0043 20.0974V20.5035C22.0043 20.7798 21.7804 21.0038 21.5041 21.0038H15.0014C14.7252 21.0038 14.5012 20.7798 14.5012 20.5035Z" stroke="#122232" stroke-width="1.5" stroke-linecap="round" stroke-linejoin="round"/>
<path fill-rule="evenodd" clip-rule="evenodd" d="M16.327 14.0408C16.0845 13.1717 16.4536 12.2478 17.2283 11.7852C18.003 11.3226 18.9915 11.4357 19.6416 12.0614C20.2918 12.6871 20.4427 13.6705 20.01 14.4623C19.5774 15.2542 18.6683 15.6585 17.7906 15.4494C17.0829 15.2809 16.5225 14.7415 16.327 14.0408Z" stroke="#122232" stroke-width="1.5" stroke-linecap="round" stroke-linejoin="round"/>
<path fill-rule="evenodd" clip-rule="evenodd" d="M1.99585 18.5027V18.0965C1.99915 16.9409 2.93512 16.0049 4.09072 16.0016H7.4041C8.5597 16.0049 9.49568 16.9409 9.49897 18.0965V18.5027C9.49897 18.7789 9.27502 19.0029 8.99877 19.0029H2.49606C2.2198 19.0029 1.99585 18.7789 1.99585 18.5027Z" stroke="#122232" stroke-width="1.5" stroke-linecap="round" stroke-linejoin="round"/>
<path fill-rule="evenodd" clip-rule="evenodd" d="M3.82161 12.04C3.57908 11.1709 3.94827 10.247 4.72296 9.78438C5.49764 9.32175 6.48613 9.43488 7.13626 10.0606C7.78639 10.6863 7.9373 11.6697 7.50468 12.4615C7.07206 13.2534 6.16298 13.6577 5.28522 13.4486C4.57756 13.28 4.01714 12.7407 3.82161 12.04Z" stroke="#122232" stroke-width="1.5" stroke-linecap="round" stroke-linejoin="round"/>
<circle cx="13.0004" cy="5.99749" r="4.00167" stroke="#122232" stroke-width="1.5" stroke-linecap="round" stroke-linejoin="round"/>
<path d="M14.3462 5.20517L12.6655 6.88487L11.655 5.87745" stroke="#122232" stroke-width="1.5" stroke-linecap="round" stroke-linejoin="round"/>
</svg>
