<svg width="24" height="24" viewBox="0 0 24 24" fill="none" xmlns="http://www.w3.org/2000/svg">
<path d="M14.001 7.99834V3.99667C14.0011 3.66864 14.162 3.36152 14.4317 3.17471C14.7013 2.9879 15.0454 2.94514 15.3525 3.06028L20.3546 4.93606C20.7454 5.08253 21.0042 5.45616 21.0039 5.87345V21.0038" stroke="#122232" stroke-width="1.5" stroke-linecap="round" stroke-linejoin="round"/>
<path fill-rule="evenodd" clip-rule="evenodd" d="M9.19904 7.99834H14.8014C15.4644 7.99834 16.0019 8.53582 16.0019 9.19884V21.0038H7.99854V9.19884C7.99854 8.53582 8.53602 7.99834 9.19904 7.99834Z" stroke="#122232" stroke-width="1.5" stroke-linecap="round" stroke-linejoin="round"/>
<path d="M10.9998 7.99834V5.9975C10.9998 5.44499 10.5519 4.99709 9.9994 4.99709H5.99773C5.44522 4.99709 4.99731 5.44499 4.99731 5.9975V10.9996" stroke="#122232" stroke-width="1.5" stroke-linecap="round" stroke-linejoin="round"/>
<path d="M7.9985 2.99625V4.99709" stroke="#122232" stroke-width="1.5" stroke-linecap="round" stroke-linejoin="round"/>
<path d="M22.0042 21.0038H1.99585" stroke="#122232" stroke-width="1.5" stroke-linecap="round" stroke-linejoin="round"/>
<path d="M10.4995 13.7007H13.5008" stroke="#122232" stroke-width="1.5" stroke-linecap="round" stroke-linejoin="round"/>
<path d="M10.4995 10.9996H13.5008" stroke="#122232" stroke-width="1.5" stroke-linecap="round" stroke-linejoin="round"/>
<path d="M10.4995 16.4018H13.5008" stroke="#122232" stroke-width="1.5" stroke-linecap="round" stroke-linejoin="round"/>
<path d="M2.99634 21.0038V12C2.99634 11.4475 3.44424 10.9996 3.99675 10.9996H7.99842" stroke="#122232" stroke-width="1.5" stroke-linecap="round" stroke-linejoin="round"/>
</svg>
