<svg width="24" height="24" viewBox="0 0 24 24" fill="none" xmlns="http://www.w3.org/2000/svg">
<path d="M10.9995 21.0038V9.8271C10.9994 9.29649 10.7886 8.78765 10.4133 8.41251L6.99788 4.99709L3.58246 8.41251C3.2072 8.78765 2.99633 9.29649 2.99622 9.8271V21.0038" stroke="#122232" stroke-width="1.5" stroke-linecap="round" stroke-linejoin="round"/>
<path d="M6.99789 12V20.0033" stroke="#122232" stroke-width="1.5" stroke-linecap="round" stroke-linejoin="round"/>
<path d="M3.17737 8.99875H10.8176" stroke="#122232" stroke-width="1.5" stroke-linecap="round" stroke-linejoin="round"/>
<path d="M6.99789 2.99625V4.99709" stroke="#122232" stroke-width="1.5" stroke-linecap="round" stroke-linejoin="round"/>
<path d="M14.0009 21.0038V11.0676C14.001 10.7396 14.1619 10.4325 14.4315 10.2457C14.7012 10.0588 15.0453 10.0161 15.3524 10.1312L20.3545 12.007C20.7449 12.1533 21.0036 12.5265 21.0038 12.9434V21.0038" stroke="#122232" stroke-width="1.5" stroke-linecap="round" stroke-linejoin="round"/>
<path d="M22.0042 21.0038H1.99585" stroke="#122232" stroke-width="1.5" stroke-linecap="round" stroke-linejoin="round"/>
<path d="M16.5018 15.0013H18.5027" stroke="#122232" stroke-width="1.5" stroke-linecap="round" stroke-linejoin="round"/>
<path d="M16.5018 18.0025H18.5027" stroke="#122232" stroke-width="1.5" stroke-linecap="round" stroke-linejoin="round"/>
</svg>
