<svg width="24" height="24" viewBox="0 0 24 24" fill="none" xmlns="http://www.w3.org/2000/svg">
<path d="M6.99788 21.0037H5.99747C4.33992 21.0037 2.99622 19.66 2.99622 18.0025V17.0021" stroke="#122232" stroke-width="1.5" stroke-linecap="round" stroke-linejoin="round"/>
<path d="M17.0021 2.99625H18.0025C19.66 2.99625 21.0037 4.33995 21.0037 5.9975V6.99791" stroke="#122232" stroke-width="1.5" stroke-linecap="round" stroke-linejoin="round"/>
<path d="M2.99622 6.99791V5.9975C2.99622 4.33995 4.33992 2.99625 5.99747 2.99625H6.99788" stroke="#122232" stroke-width="1.5" stroke-linecap="round" stroke-linejoin="round"/>
<path d="M21.0037 17.0021V18.0025C21.0037 19.66 19.66 21.0037 18.0025 21.0037H17.0021" stroke="#122232" stroke-width="1.5" stroke-linecap="round" stroke-linejoin="round"/>
<path fill-rule="evenodd" clip-rule="evenodd" d="M8.99869 5.9975H15.0012C16.6587 5.9975 18.0024 7.3412 18.0024 8.99875V10.9996H5.99744V8.99875C5.99744 7.3412 7.34114 5.9975 8.99869 5.9975Z" stroke="#122232" stroke-width="1.5" stroke-linecap="round" stroke-linejoin="round"/>
<path d="M18.0024 14.0008V15.0012C18.0024 16.6588 16.6587 18.0025 15.0012 18.0025H8.99869C7.34114 18.0025 5.99744 16.6588 5.99744 15.0012V14.0008" stroke="#122232" stroke-width="1.5" stroke-linecap="round" stroke-linejoin="round"/>
<path d="M3.9967 10.9996H20.0034" stroke="#122232" stroke-width="1.5" stroke-linecap="round" stroke-linejoin="round"/>
</svg>
