<svg width="24" height="24" viewBox="0 0 24 24" fill="none" xmlns="http://www.w3.org/2000/svg">
<path d="M14.6895 15.8162H9.31323" stroke="#122232" stroke-width="1.5" stroke-linecap="round" stroke-linejoin="round"/>
<path fill-rule="evenodd" clip-rule="evenodd" d="M9.06898 15.5662C7.25866 14.2886 6.48424 11.9856 7.15476 9.87376C7.82528 7.76188 9.78629 6.32745 12.0021 6.32809C14.2178 6.32874 16.178 7.7643 16.8473 9.87657C17.5166 11.9888 16.7408 14.2913 14.9298 15.5679C14.6929 15.7264 14.5484 15.9906 14.5425 16.2755V18.6203C14.5426 19.1822 14.3194 19.7211 13.9221 20.1185C13.5248 20.5158 12.9858 20.7389 12.4239 20.7389H11.5765C11.0146 20.7389 10.4757 20.5158 10.0784 20.1185C9.68104 19.7211 9.45786 19.1822 9.45794 18.6203V16.2789C9.45232 15.9921 9.30714 15.7261 9.06898 15.5662Z" stroke="#122232" stroke-width="1.5" stroke-linecap="round" stroke-linejoin="round"/>
<path d="M18.3666 5.36859L17.73 6.00524" stroke="#122232" stroke-width="1.5" stroke-linecap="round" stroke-linejoin="round"/>
<path d="M6.2702 17.4651L5.63354 18.1018" stroke="#122232" stroke-width="1.5" stroke-linecap="round" stroke-linejoin="round"/>
<path d="M21.0039 11.7352H20.1035" stroke="#122232" stroke-width="1.5" stroke-linecap="round" stroke-linejoin="round"/>
<path d="M3.89668 11.7352H2.99631" stroke="#122232" stroke-width="1.5" stroke-linecap="round" stroke-linejoin="round"/>
<path d="M18.3666 18.1018L17.73 17.4651" stroke="#122232" stroke-width="1.5" stroke-linecap="round" stroke-linejoin="round"/>
<path d="M6.2702 6.00525L5.63354 5.36858" stroke="#122232" stroke-width="1.5" stroke-linecap="round" stroke-linejoin="round"/>
<path d="M12.0002 3.63176V2.73139" stroke="#122232" stroke-width="1.5" stroke-linecap="round" stroke-linejoin="round"/>
</svg>
