<svg width="24" height="24" viewBox="0 0 24 24" fill="none" xmlns="http://www.w3.org/2000/svg">
<path fill-rule="evenodd" clip-rule="evenodd" d="M5.99773 4.99709H7.99856C8.55108 4.99709 8.99898 5.44499 8.99898 5.9975V7.99834H4.99731V5.9975C4.99731 5.44499 5.44522 4.99709 5.99773 4.99709Z" stroke="#122232" stroke-width="1.5" stroke-linecap="round" stroke-linejoin="round"/>
<path d="M6.99801 2.99625V4.99709" stroke="#122232" stroke-width="1.5" stroke-linecap="round" stroke-linejoin="round"/>
<path d="M2.99634 21.0038V8.99875C2.99634 8.44624 3.44424 7.99834 3.99675 7.99834H9.99925C10.5518 7.99834 10.9997 8.44624 10.9997 8.99875V12" stroke="#122232" stroke-width="1.5" stroke-linecap="round" stroke-linejoin="round"/>
<path d="M14.001 12V4.99709C14.0011 4.66906 14.162 4.36193 14.4317 4.17512C14.7013 3.98832 15.0454 3.94556 15.3525 4.0607L20.3546 5.93648C20.7454 6.08295 21.0042 6.45657 21.0039 6.87387V21.0038" stroke="#122232" stroke-width="1.5" stroke-linecap="round" stroke-linejoin="round"/>
<path d="M7.99854 21.0038V13.0004C7.99854 12.4479 8.44644 12 8.99895 12H15.0015C15.554 12 16.0019 12.4479 16.0019 13.0004V21.0038" stroke="#122232" stroke-width="1.5" stroke-linecap="round" stroke-linejoin="round"/>
<path d="M10.4995 17.7024H13.5008" stroke="#122232" stroke-width="1.5" stroke-linecap="round" stroke-linejoin="round"/>
<path d="M10.4995 15.0013H13.5008" stroke="#122232" stroke-width="1.5" stroke-linecap="round" stroke-linejoin="round"/>
<path d="M22.0042 21.0038H1.99585" stroke="#122232" stroke-width="1.5" stroke-linecap="round" stroke-linejoin="round"/>
</svg>
