<svg width="24" height="24" viewBox="0 0 24 24" fill="none" xmlns="http://www.w3.org/2000/svg">
<path d="M18.98 6.98001L21 9.00001" stroke="#122232" stroke-width="1.5" stroke-linecap="round" stroke-linejoin="round"/>
<path d="M18.9796 2.85437C20.1188 3.99353 20.1188 5.84047 18.9796 6.97963C17.8405 8.11879 15.9935 8.11879 14.8544 6.97963C13.7152 5.84047 13.7152 3.99353 14.8544 2.85437C15.9935 1.71521 17.8405 1.71521 18.9796 2.85437" stroke="#122232" stroke-width="1.5" stroke-linecap="round" stroke-linejoin="round"/>
<path d="M11 7.5H4C3.448 7.5 3 7.052 3 6.5V4C3 3.448 3.448 3 4 3H11" stroke="#122232" stroke-width="1.5" stroke-linecap="round" stroke-linejoin="round"/>
<path fill-rule="evenodd" clip-rule="evenodd" d="M5.25 14.5H3.75C3.336 14.5 3 14.164 3 13.75V12.25C3 11.836 3.336 11.5 3.75 11.5H5.25C5.664 11.5 6 11.836 6 12.25V13.75C6 14.164 5.664 14.5 5.25 14.5Z" stroke="#122232" stroke-width="1.5" stroke-linecap="round" stroke-linejoin="round"/>
<path d="M9.22192 13H20.9999" stroke="#122232" stroke-width="1.5" stroke-linecap="round" stroke-linejoin="round"/>
<path fill-rule="evenodd" clip-rule="evenodd" d="M5.25 21H3.75C3.336 21 3 20.664 3 20.25V18.75C3 18.336 3.336 18 3.75 18H5.25C5.664 18 6 18.336 6 18.75V20.25C6 20.664 5.664 21 5.25 21Z" stroke="#122232" stroke-width="1.5" stroke-linecap="round" stroke-linejoin="round"/>
<path d="M9.22192 19.5H20.9999" stroke="#122232" stroke-width="1.5" stroke-linecap="round" stroke-linejoin="round"/>
</svg>
