<svg width="24" height="24" viewBox="0 0 24 24" fill="none" xmlns="http://www.w3.org/2000/svg">
<path d="M12.0019 6.44553C10.9033 6.44553 9.82942 6.77135 8.91599 7.3818C8.00255 7.99226 7.29062 8.85991 6.87021 9.87506C6.4498 10.8902 6.33981 12.0072 6.55413 13.0849C6.76845 14.1626 7.29747 15.1525 8.07428 15.9294C8.85109 16.7064 9.8408 17.2355 10.9183 17.4499C11.9957 17.6642 13.1126 17.5542 14.1275 17.1337C15.1425 16.7132 16.01 16.0012 16.6203 15.0876C17.2306 14.174 17.5564 13.0999 17.5564 12.0011M13.1128 2.06235C11.0532 1.83125 8.97281 2.246 7.15925 3.24921C5.34568 4.25242 3.88863 5.79452 2.98964 7.66219C2.09065 9.52986 1.79415 11.6308 2.14116 13.6744C2.48816 15.718 3.46153 17.6032 4.92661 19.0693C6.39168 20.5354 8.27606 21.5099 10.3191 21.858C12.3621 22.2061 14.4628 21.9106 16.3306 21.0124C18.1983 20.1141 19.7409 18.6576 20.7448 16.8442C21.7487 15.0308 22.1645 12.9502 21.9344 10.8901M15.3346 8.66775V5.33442L18.6673 2.00109V5.33442H22L18.6673 8.66775H15.3346ZM15.3346 8.66775L12.0019 12.0011M10.891 12.0011C10.891 12.2958 11.008 12.5784 11.2164 12.7867C11.4247 12.9951 11.7073 13.1122 12.0019 13.1122C12.2965 13.1122 12.5791 12.9951 12.7874 12.7867C12.9958 12.5784 13.1128 12.2958 13.1128 12.0011C13.1128 11.7064 12.9958 11.4238 12.7874 11.2154C12.5791 11.007 12.2965 10.89 12.0019 10.89C11.7073 10.89 11.4247 11.007 11.2164 11.2154C11.008 11.4238 10.891 11.7064 10.891 12.0011Z" stroke="#122232" stroke-width="1.5" stroke-linecap="round" stroke-linejoin="round"/>
</svg>
