<svg width="24" height="24" viewBox="0 0 24 24" fill="none" xmlns="http://www.w3.org/2000/svg">
<path d="M10.0001 8H13.0001C13.2653 8 13.5197 8.10536 13.7072 8.29289C13.8948 8.48043 14.0001 8.73478 14.0001 9V11C14.0001 11.2652 13.8948 11.5196 13.7072 11.7071C13.5197 11.8946 13.2653 12 13.0001 12H11.0001C10.7349 12 10.4806 12.1054 10.293 12.2929C10.1055 12.4804 10.0001 12.7348 10.0001 13V15C10.0001 15.2652 10.1055 15.5196 10.293 15.7071C10.4806 15.8946 10.7349 16 11.0001 16H14.0001M3.00012 12C3.00012 13.1819 3.23291 14.3522 3.68521 15.4441C4.1375 16.5361 4.80043 17.5282 5.63616 18.364C6.47189 19.1997 7.46404 19.8626 8.55597 20.3149C9.6479 20.7672 10.8182 21 12.0001 21C13.182 21 14.3523 20.7672 15.4443 20.3149C16.5362 19.8626 17.5284 19.1997 18.3641 18.364C19.1998 17.5282 19.8627 16.5361 20.315 15.4441C20.7673 14.3522 21.0001 13.1819 21.0001 12C21.0001 10.8181 20.7673 9.64778 20.315 8.55585C19.8627 7.46392 19.1998 6.47177 18.3641 5.63604C17.5284 4.80031 16.5362 4.13738 15.4443 3.68508C14.3523 3.23279 13.182 3 12.0001 3C10.8182 3 9.6479 3.23279 8.55597 3.68508C7.46404 4.13738 6.47189 4.80031 5.63616 5.63604C4.80043 6.47177 4.1375 7.46392 3.68521 8.55585C3.23291 9.64778 3.00012 10.8181 3.00012 12Z" stroke="#122232" stroke-width="1.5" stroke-linecap="round" stroke-linejoin="round"/>
</svg>
