<svg width="24" height="24" viewBox="0 0 24 24" fill="none" xmlns="http://www.w3.org/2000/svg">
<path d="M12 1.99992C17.523 1.99992 22 6.47692 22 11.9999C22 17.5229 17.523 21.9999 12 21.9999C6.477 21.9999 2 17.5229 2 11.9999C2 6.47692 6.477 1.99992 12 1.99992ZM13 6.99992H11L10.85 7.00492C10.3468 7.04277 9.87659 7.26939 9.5335 7.63938C9.19041 8.00936 8.99984 8.49535 9 8.99992C8.99915 9.2457 9.08883 9.48318 9.25194 9.66703C9.41504 9.85089 9.64014 9.96824 9.88426 9.99668C10.1284 10.0251 10.3744 9.96267 10.5754 9.82124C10.7764 9.67981 10.9183 9.46931 10.974 9.22992L10.994 9.11692L11 8.99992H13V10.9999H11L10.867 11.0069C9.756 11.1269 9.713 12.7369 10.739 12.9719L10.867 12.9929L11 12.9999H13V14.9999H11L10.993 14.8829C10.9629 14.6298 10.8373 14.3978 10.6418 14.2342C10.4464 14.0706 10.1958 13.9878 9.94139 14.0028C9.68695 14.0177 9.44782 14.1292 9.27285 14.3146C9.09788 14.4999 9.00028 14.745 9 14.9999C8.99984 15.5045 9.19041 15.9905 9.5335 16.3605C9.87659 16.7305 10.3468 16.9571 10.85 16.9949L11 16.9999H13L13.15 16.9949C13.6262 16.9591 14.0738 16.7542 14.412 16.4171C14.7502 16.08 14.9567 15.633 14.994 15.1569L15 14.9999V12.9999L14.995 12.8499C14.9775 12.6194 14.92 12.3937 14.825 12.1829L14.75 12.0309L14.731 11.9989L14.751 11.9689C14.8862 11.7237 14.9686 11.4529 14.993 11.1739L15 10.9999V8.99992L14.995 8.84992C14.9592 8.37375 14.7542 7.9261 14.4171 7.58789C14.08 7.24969 13.6331 7.04326 13.157 7.00592L13 6.99992Z" fill="#122232"/>
</svg>
