<svg width="24" height="24" viewBox="0 0 24 24" fill="none" xmlns="http://www.w3.org/2000/svg">
<path d="M9.99976 7.99997V11C9.99976 11.2652 10.1051 11.5195 10.2926 11.7071C10.4802 11.8946 10.7345 12 10.9998 12H13.9998M13.9998 7.99997V16M2.99976 12C2.99976 13.1819 3.23255 14.3522 3.68484 15.4441C4.13713 16.536 4.80007 17.5282 5.63579 18.3639C6.47152 19.1997 7.46367 19.8626 8.5556 20.3149C9.64753 20.7672 10.8179 21 11.9998 21C13.1817 21 14.352 20.7672 15.4439 20.3149C16.5358 19.8626 17.528 19.1997 18.3637 18.3639C19.1994 17.5282 19.8624 16.536 20.3147 15.4441C20.767 14.3522 20.9998 13.1819 20.9998 12C20.9998 10.8181 20.767 9.64775 20.3147 8.55582C19.8624 7.46389 19.1994 6.47174 18.3637 5.63601C17.528 4.80028 16.5358 4.13735 15.4439 3.68505C14.352 3.23276 13.1817 2.99997 11.9998 2.99997C10.8179 2.99997 9.64753 3.23276 8.5556 3.68505C7.46367 4.13735 6.47152 4.80028 5.63579 5.63601C4.80007 6.47174 4.13713 7.46389 3.68484 8.55582C3.23255 9.64775 2.99976 10.8181 2.99976 12Z" stroke="#122232" stroke-width="1.5" stroke-linecap="round" stroke-linejoin="round"/>
</svg>
