<svg width="24" height="24" viewBox="0 0 24 24" fill="none" xmlns="http://www.w3.org/2000/svg">
<path d="M9.99988 10L11.9999 8V16M2.99988 12C2.99988 13.1819 3.23267 14.3522 3.68496 15.4441C4.13725 16.5361 4.80019 17.5282 5.63592 18.364C6.47164 19.1997 7.4638 19.8626 8.55573 20.3149C9.64766 20.7672 10.818 21 11.9999 21C13.1818 21 14.3521 20.7672 15.444 20.3149C16.536 19.8626 17.5281 19.1997 18.3638 18.364C19.1996 17.5282 19.8625 16.5361 20.3148 15.4441C20.7671 14.3522 20.9999 13.1819 20.9999 12C20.9999 10.8181 20.7671 9.64778 20.3148 8.55585C19.8625 7.46392 19.1996 6.47177 18.3638 5.63604C17.5281 4.80031 16.536 4.13738 15.444 3.68508C14.3521 3.23279 13.1818 3 11.9999 3C10.818 3 9.64766 3.23279 8.55573 3.68508C7.4638 4.13738 6.47164 4.80031 5.63592 5.63604C4.80019 6.47177 4.13725 7.46392 3.68496 8.55585C3.23267 9.64778 2.99988 10.8181 2.99988 12Z" stroke="#122232" stroke-width="1.5" stroke-linecap="round" stroke-linejoin="round"/>
</svg>
