<svg width="24" height="24" viewBox="0 0 24 24" fill="none" xmlns="http://www.w3.org/2000/svg">
<path d="M11.9999 1.99992C17.5229 1.99992 21.9999 6.47692 21.9999 11.9999C21.9999 17.5229 17.5229 21.9999 11.9999 21.9999C6.47688 21.9999 1.99988 17.5229 1.99988 11.9999C1.99988 6.47692 6.47688 1.99992 11.9999 1.99992ZM12.9939 7.88592C12.9109 7.10892 11.9859 6.72592 11.3769 7.21592L11.2929 7.29292L9.29288 9.29292L9.20988 9.38692C9.07381 9.5623 8.99996 9.77796 8.99996 9.99992C8.99996 10.2219 9.07381 10.4376 9.20988 10.6129L9.29288 10.7069L9.38688 10.7899C9.56225 10.926 9.77791 10.9998 9.99988 10.9998C10.2218 10.9998 10.4375 10.926 10.6129 10.7899L10.7069 10.7069L10.9999 10.4139V15.9999L11.0069 16.1169C11.0358 16.36 11.1528 16.584 11.3358 16.7465C11.5189 16.909 11.7551 16.9988 11.9999 16.9988C12.2446 16.9988 12.4809 16.909 12.6639 16.7465C12.8469 16.584 12.964 16.36 12.9929 16.1169L12.9999 15.9999V7.99992L12.9939 7.88592Z" fill="#122232"/>
</svg>
