<svg width="24" height="24" viewBox="0 0 24 24" fill="none" xmlns="http://www.w3.org/2000/svg">
<path d="M11.9999 1.99992C17.5229 1.99992 21.9999 6.47692 21.9999 11.9999C21.9999 17.5229 17.5229 21.9999 11.9999 21.9999C6.47688 21.9999 1.99988 17.5229 1.99988 11.9999C1.99988 6.47692 6.47688 1.99992 11.9999 1.99992ZM12.9999 6.99992H9.99988L9.88288 7.00692C9.63983 7.03583 9.41582 7.15288 9.25329 7.33589C9.09076 7.5189 9.00099 7.75516 9.00099 7.99992C9.00099 8.24469 9.09076 8.48095 9.25329 8.66396C9.41582 8.84697 9.63983 8.96401 9.88288 8.99292L9.99988 8.99992H12.9999V10.9999H10.9999L10.8499 11.0049C10.3737 11.0407 9.92605 11.2457 9.58785 11.5828C9.24964 11.9199 9.04321 12.3669 9.00588 12.8429L8.99988 12.9999V14.9999L9.00488 15.1499C9.04066 15.6261 9.24564 16.0737 9.58274 16.412C9.91984 16.7502 10.3668 16.9566 10.8429 16.9939L10.9999 16.9999H13.9999L14.1169 16.9929C14.3599 16.964 14.5839 16.847 14.7465 16.664C14.909 16.481 14.9988 16.2447 14.9988 15.9999C14.9988 15.7552 14.909 15.5189 14.7465 15.3359C14.5839 15.1529 14.3599 15.0358 14.1169 15.0069L13.9999 14.9999H10.9999V12.9999H12.9999L13.1499 12.9949C13.626 12.9591 14.0737 12.7542 14.4119 12.4171C14.7501 12.08 14.9565 11.633 14.9939 11.1569L14.9999 10.9999V8.99992L14.9949 8.84992C14.9591 8.37375 14.7541 7.9261 14.417 7.58789C14.0799 7.24969 13.6329 7.04326 13.1569 7.00592L12.9999 6.99992Z" fill="#122232"/>
</svg>
