<svg width="24" height="24" viewBox="0 0 24 24" fill="none" xmlns="http://www.w3.org/2000/svg">
<path d="M16.1543 2.00391C17.7394 2.08421 19 3.39489 19 5C19 6.60511 17.7394 7.91579 16.1543 7.99609L16 8H14.5V9.25H17.1045C17.9962 9.25 18.7462 9.92041 18.8447 10.8066L19.209 15H21L21.1025 15.0049C21.6067 15.0562 22 15.4823 22 16V21C22 21.5177 21.6067 21.9438 21.1025 21.9951L21 22H17C16.4477 22 16 21.5523 16 21V19.75H8V21C8 21.5177 7.60667 21.9438 7.10254 21.9951L7 22H3C2.44772 22 2 21.5523 2 21V16C2 15.4477 2.44772 15 3 15H4.79102L5.15527 10.8066C5.25377 9.92041 6.00381 9.25 6.89551 9.25H9.5V8H8C6.34315 8 5 6.65685 5 5C5 3.34315 6.34315 2 8 2H16L16.1543 2.00391ZM3.5 20.5H6.5V16.5H3.5V20.5ZM17.5 20.5H20.5V16.5H17.5V20.5ZM6.89551 10.75C6.76812 10.75 6.66055 10.846 6.64648 10.9727L6.2959 15H7L7.10254 15.0049C7.60667 15.0562 8 15.4823 8 16V18.25H16V16C16 15.4477 16.4477 15 17 15H17.7041L17.3535 10.9727C17.3394 10.846 17.2319 10.75 17.1045 10.75H6.89551ZM14.1025 12.5049C14.6067 12.5562 15 12.9823 15 13.5V15.5L14.9951 15.6025C14.9472 16.073 14.573 16.4472 14.1025 16.4951L14 16.5H10C9.44772 16.5 9 16.0523 9 15.5V13.5C9 12.9477 9.44772 12.5 10 12.5H14L14.1025 12.5049ZM10.5 15H13.5V14H10.5V15ZM11 9.25H13V8H11V9.25ZM8 3.5C7.17157 3.5 6.5 4.17157 6.5 5C6.5 5.82843 7.17157 6.5 8 6.5H16C16.8284 6.5 17.5 5.82843 17.5 5C17.5 4.17157 16.8284 3.5 16 3.5H8ZM8.75 4.25C9.16421 4.25 9.5 4.58579 9.5 5C9.5 5.41421 9.16421 5.75 8.75 5.75C8.33579 5.75 8 5.41421 8 5C8 4.58579 8.33579 4.25 8.75 4.25ZM15.25 4.25C15.6642 4.25 16 4.58579 16 5C16 5.41421 15.6642 5.75 15.25 5.75C14.8358 5.75 14.5 5.41421 14.5 5C14.5 4.58579 14.8358 4.25 15.25 4.25Z" fill="#122232"/>
</svg>
