<svg width="24" height="24" viewBox="0 0 24 24" fill="none" xmlns="http://www.w3.org/2000/svg">
<path d="M6.53855 21.0949C8.23699 21.0949 9.66357 19.9309 10.0642 18.3572C10.1881 17.8704 10.5837 17.4569 11.0859 17.4569H17.4523M6.53855 21.0949C4.52939 21.0949 2.90063 19.4661 2.90063 17.4569V5.63371C2.90063 4.12684 4.1222 2.90527 5.62907 2.90527H14.7239C16.2307 2.90527 17.4523 4.12684 17.4523 5.63371V17.4569M6.53855 21.0949H17.4523C19.1507 21.0949 20.5773 19.9309 20.978 18.3572C21.1019 17.8704 20.683 17.4569 20.1807 17.4569H17.4523M7.44803 10.1811L9.04218 11.4564C9.42223 11.7605 9.97429 11.7114 10.2948 11.3451L12.9049 8.36215" stroke="#122232" stroke-width="1.5" stroke-linecap="round"/>
</svg>
