<svg width="24" height="24" viewBox="0 0 24 24" fill="none" xmlns="http://www.w3.org/2000/svg">
<path d="M19.0001 2H5.00012C4.20447 2 3.44141 2.31607 2.8788 2.87868C2.31619 3.44129 2.00012 4.20435 2.00012 5V19C2.00012 19.7956 2.31619 20.5587 2.8788 21.1213C3.44141 21.6839 4.20447 22 5.00012 22H19.0001C19.7958 22 20.5588 21.6839 21.1214 21.1213C21.6841 20.5587 22.0001 19.7956 22.0001 19V5C22.0001 4.20435 21.6841 3.44129 21.1214 2.87868C20.5588 2.31607 19.7958 2 19.0001 2ZM9.61312 8.21L9.70712 8.293L12.0001 10.585L14.2931 8.293C14.4731 8.11365 14.7146 8.00953 14.9685 8.00177C15.2225 7.99402 15.4698 8.08321 15.6604 8.25125C15.851 8.41928 15.9704 8.65355 15.9945 8.90647C16.0186 9.1594 15.9455 9.41201 15.7901 9.613L15.7071 9.707L13.4151 12L15.7071 14.293C15.8865 14.473 15.9906 14.7144 15.9984 14.9684C16.0061 15.2223 15.9169 15.4697 15.7489 15.6603C15.5808 15.8508 15.3466 15.9703 15.0936 15.9944C14.8407 16.0185 14.5881 15.9454 14.3871 15.79L14.2931 15.707L12.0001 13.415L9.70712 15.707C9.52716 15.8863 9.28569 15.9905 9.03174 15.9982C8.77779 16.006 8.53041 15.9168 8.33984 15.7488C8.14928 15.5807 8.02982 15.3464 8.00572 15.0935C7.98163 14.8406 8.05471 14.588 8.21012 14.387L8.29312 14.293L10.5851 12L8.29312 9.707C8.11377 9.52704 8.00965 9.28557 8.00189 9.03162C7.99414 8.77767 8.08334 8.53029 8.25137 8.33972C8.4194 8.14916 8.65367 8.02969 8.9066 8.0056C9.15952 7.98151 9.41213 8.05459 9.61312 8.21Z" fill="#122232"/>
</svg>
