<svg width="24" height="24" viewBox="0 0 24 24" fill="none" xmlns="http://www.w3.org/2000/svg">
<path d="M18.3329 2C20.2929 2 21.8929 3.537 21.9949 5.472L21.9999 5.667V18.333C21.9999 20.293 20.4629 21.893 18.5279 21.995L18.3329 22H5.66688C4.72805 22 3.82497 21.64 3.14368 20.9941C2.46239 20.3481 2.0548 19.4655 2.00488 18.528L1.99988 18.333V5.667C1.99988 3.707 3.53688 2.107 5.47188 2.005L5.66688 2H18.3329ZM15.7069 9.293C15.5194 9.10553 15.265 9.00021 14.9999 9.00021C14.7347 9.00021 14.4804 9.10553 14.2929 9.293L10.9999 12.585L9.70688 11.293L9.61288 11.21C9.41189 11.0546 9.15928 10.9815 8.90635 11.0056C8.65343 11.0297 8.41916 11.1492 8.25113 11.3397C8.08309 11.5303 7.9939 11.7777 8.00165 12.0316C8.0094 12.2856 8.11353 12.527 8.29288 12.707L10.2929 14.707L10.3869 14.79C10.5793 14.9393 10.8195 15.0132 11.0626 14.9979C11.3056 14.9826 11.5347 14.8792 11.7069 14.707L15.7069 10.707L15.7899 10.613C15.9391 10.4206 16.013 10.1803 15.9978 9.93732C15.9825 9.69429 15.8791 9.46519 15.7069 9.293Z" fill="#122232"/>
</svg>
