<svg width="24" height="24" viewBox="0 0 24 24" fill="none" xmlns="http://www.w3.org/2000/svg">
<path d="M20.7923 9.52401C21.5824 10.314 21.5824 11.5949 20.7923 12.385C20.0023 13.175 18.7214 13.175 17.9314 12.385C17.1414 11.5949 17.1414 10.314 17.9314 9.52401C18.7214 8.73398 20.0023 8.73398 20.7923 9.52401" stroke="#122232" stroke-width="1.5" stroke-linecap="round" stroke-linejoin="round"/>
<path d="M14.2026 5.91249C15.4191 7.12897 15.4191 9.10128 14.2026 10.3178C12.9862 11.5342 11.0139 11.5342 9.79737 10.3178C8.58089 9.10129 8.58089 7.12898 9.79737 5.91249C11.0138 4.69601 12.9862 4.69601 14.2026 5.91249" stroke="#122232" stroke-width="1.5" stroke-linecap="round" stroke-linejoin="round"/>
<path d="M6.06822 9.52401C6.85825 10.314 6.85825 11.5949 6.06822 12.385C5.27819 13.175 3.9973 13.175 3.20727 12.385C2.41724 11.5949 2.41724 10.314 3.20727 9.52401C3.9973 8.73398 5.27819 8.73398 6.06822 9.52401" stroke="#122232" stroke-width="1.5" stroke-linecap="round" stroke-linejoin="round"/>
<path d="M22.9997 19.0001V17.9041C22.9997 16.5231 21.8807 15.4041 20.4997 15.4041H19.6987" stroke="#122232" stroke-width="1.5" stroke-linecap="round" stroke-linejoin="round"/>
<path d="M0.999756 19.0001V17.9041C0.999756 16.5231 2.11876 15.4041 3.49976 15.4041H4.30076" stroke="#122232" stroke-width="1.5" stroke-linecap="round" stroke-linejoin="round"/>
<path d="M17.3389 19.0001V17.3991C17.3389 15.4661 15.7719 13.8991 13.8389 13.8991H10.1599C8.22691 13.8991 6.65991 15.4661 6.65991 17.3991V19.0001" stroke="#122232" stroke-width="1.5" stroke-linecap="round" stroke-linejoin="round"/>
</svg>
