<svg width="24" height="24" viewBox="0 0 24 24" fill="none" xmlns="http://www.w3.org/2000/svg">
<path d="M10.0002 20C10.0002 20.5305 10.211 21.0392 10.586 21.4142C10.9611 21.7893 11.4698 22 12.0002 22C12.5307 22 13.0394 21.7893 13.4145 21.4142C13.7895 21.0392 14.0002 20.5305 14.0002 20M10.0002 20C10.0002 19.4696 10.211 18.9609 10.586 18.5858C10.9611 18.2107 11.4698 18 12.0002 18C12.5307 18 13.0394 18.2107 13.4145 18.5858C13.7895 18.9609 14.0002 19.4696 14.0002 20M10.0002 20H4.00024M14.0002 20H20.0002M9.00024 6.00003H15.0002M9.00024 9.00003H12.0002M12.0002 15L10.0002 13H7.00024C6.73503 13 6.48067 12.8947 6.29314 12.7071C6.1056 12.5196 6.00024 12.2652 6.00024 12V4.00003C6.00024 3.73481 6.1056 3.48046 6.29314 3.29292C6.48067 3.10539 6.73503 3.00003 7.00024 3.00003H17.0002C17.2655 3.00003 17.5198 3.10539 17.7074 3.29292C17.8949 3.48046 18.0002 3.73481 18.0002 4.00003V12C18.0002 12.2652 17.8949 12.5196 17.7074 12.7071C17.5198 12.8947 17.2655 13 17.0002 13H14.0002L12.0002 15Z" stroke="#122232" stroke-width="1.5" stroke-linecap="round" stroke-linejoin="round"/>
</svg>
