<svg width="1440" height="569" viewBox="0 0 1440 569" fill="none" xmlns="http://www.w3.org/2000/svg">
<path d="M1663.42 7.67511C1663.35 7.53088 1663.27 7.39093 1663.2 7.25305C1662.99 6.85553 1662.76 6.46918 1662.51 6.09631C1662.48 6.0625 1662.46 6.02838 1662.44 5.99475C1662.15 5.55768 1661.85 5.15881 1661.55 4.79529C1661.84 5.14941 1662.13 5.53766 1662.41 5.96136C1660.19 2.70941 1656.6 0.468262 1652.46 0.0667725C1652.42 0.0442505 1652.38 0.0230103 1652.34 0H1535.72C1535.71 0.00500488 1535.7 0.00976562 1535.69 0.0147095C1528.41 0.320557 1522.6 6.3194 1522.6 13.6779V128.572C1522.6 136.095 1515.76 142.25 1508.93 142.25H1394.07C1387.92 142.25 1380.4 136.095 1380.4 128.572V13.6779C1380.4 6.32031 1374.59 0.321899 1367.31 0.0147095C1367.3 0.00982666 1367.29 0.00488281 1367.29 0H1250.67C1250.62 0.0230713 1250.58 0.0441895 1250.54 0.0667725C1243.61 0.737671 1238.2 6.5741 1238.2 13.6779V127.172C1238.2 128.572 1237.87 129.997 1237.52 131.225C1236.84 133.636 1235.63 135.613 1233.61 137.638C1230.76 140.49 1227.66 141.763 1223.47 142.25H1109.67C1102.78 142.25 1097.08 147.356 1096.14 153.995L1096 154.292V271.612C1096.01 271.63 1096.02 271.649 1096.03 271.668C1096.46 278.828 1102.41 284.5 1109.67 284.5H1224.53C1224.97 284.5 1225.4 284.478 1225.84 284.437C1227.49 284.787 1228.92 285.25 1230.01 285.87C1235.18 288.826 1237.27 293.109 1238.05 298.255C1238.11 298.63 1238.16 299.01 1238.2 299.395V413.072C1238.2 420.626 1244.32 426.75 1251.87 426.75H1366.73C1371.51 426.75 1377.17 431.162 1379.03 434.957C1379.56 436.037 1380.4 438.376 1380.4 440.428V555.322C1380.4 562.876 1386.52 569 1394.07 569H1508.93C1516.48 569 1522.6 562.876 1522.6 555.322L1522.59 439.918C1522.59 438.376 1523.26 436.623 1523.79 435.55C1525.12 432.843 1526.8 430.889 1528.79 429.496C1530.78 428.107 1534.22 426.746 1536.09 426.746L1651.13 426.75C1658.68 426.75 1664.8 420.626 1664.8 413.072V298.251C1664.8 294.758 1667.82 288.821 1673 285.873C1674.09 285.252 1675.74 284.5 1678.47 284.5H1793.33C1800.6 284.5 1806.54 278.823 1806.97 271.658C1806.98 271.641 1806.99 271.622 1807 271.605V154.557C1806.97 154.503 1806.94 154.449 1806.91 154.396C1806.15 147.563 1800.36 142.25 1793.33 142.25H1679.77C1675.05 142.25 1671.38 140.091 1668.95 137.408C1666.44 134.636 1664.8 131.308 1664.8 125.911V13.6779C1664.8 11.3694 1664.22 9.19647 1663.22 7.28912C1663.28 7.41571 1663.36 7.54309 1663.42 7.67511ZM1664.08 9.14172C1664.07 9.10913 1664.06 9.07678 1664.04 9.04425C1664.07 9.10602 1664.09 9.16791 1664.12 9.22992C1664.11 9.20068 1664.1 9.1709 1664.08 9.14172ZM1664.44 10.1462C1664.42 10.1073 1664.41 10.0688 1664.4 10.03C1664.42 10.0874 1664.43 10.1447 1664.45 10.2023C1664.45 10.1838 1664.44 10.1648 1664.44 10.1462ZM1664.72 11.168C1664.64 10.8431 1664.55 10.5214 1664.45 10.2023C1664.5 10.3527 1664.54 10.5035 1664.59 10.6552C1664.63 10.8257 1664.68 10.9959 1664.72 11.168ZM1651.13 284.5H1535.59C1533.07 284.5 1531.05 283.411 1529.11 282.053C1526.39 280.15 1522.6 275.609 1522.6 270.822V155.928C1522.6 153.876 1523.57 151.184 1524.53 149.268C1526.24 145.88 1530.12 142.25 1536.27 142.25H1651.13C1653.86 142.25 1656.38 142.871 1657.69 143.523C1661.14 145.237 1664.8 149.773 1664.8 155.928V270.822C1664.8 274.242 1663.74 276.954 1662.75 278.345C1662.75 278.345 1658.65 284.5 1651.13 284.5ZM1249.99 284.634C1247.61 284.158 1245.65 283.346 1244.03 282.259C1241.34 280.45 1239.66 277.928 1238.62 275.106C1238.38 274.459 1238.18 273.794 1238 273.116C1238.13 272.37 1238.2 271.604 1238.2 270.822V155.928C1238.2 152.508 1239.07 149.672 1240.1 148.217C1242.26 145.185 1246.4 142.25 1251.87 142.25H1366.73C1370.83 142.25 1374.06 144.088 1375.91 145.843C1378.21 148.024 1380.4 151.141 1380.4 155.928V270.822C1380.4 274.925 1378.28 278.069 1376.14 280.235C1374.03 282.366 1370.83 284.5 1366.73 284.5H1251.87C1251.23 284.5 1250.61 284.549 1249.99 284.634ZM1508.93 426.75H1394.07C1389.97 426.75 1384.58 424.014 1382.72 420.782C1381.39 418.958 1380.4 415.124 1380.4 413.072V298.178C1380.4 292.707 1383.89 288.748 1386.41 286.892L1386.82 286.598C1388.49 285.447 1390.65 284.5 1393.39 284.5H1508.93C1513.71 284.5 1518.3 287.954 1520.38 290.741C1521.6 292.377 1522.6 294.758 1522.6 298.178V413.072C1522.6 417.859 1519.03 422.669 1516.39 424.575C1514.7 425.791 1512.35 426.75 1508.93 426.75Z" fill="white"/>
<path d="M200.425 7.67511C200.35 7.53088 200.273 7.39093 200.198 7.25305C199.986 6.85553 199.756 6.46918 199.507 6.09631C199.485 6.0625 199.461 6.02838 199.438 5.99475C199.147 5.55768 198.852 5.15881 198.55 4.79529C198.844 5.14941 199.13 5.53766 199.414 5.96136C197.188 2.70941 193.597 0.468262 189.465 0.0667725C189.422 0.0442505 189.379 0.0230103 189.337 0H72.7176C72.7083 0.00500488 72.6988 0.00976562 72.6895 0.0147095C65.4088 0.320557 59.6 6.3194 59.6 13.6779V128.572C59.6 136.095 52.7635 142.25 45.9269 142.25H-68.9269C-75.0798 142.25 -82.6 136.095 -82.6 128.572V13.6779C-82.6 6.32031 -88.4074 0.321899 -95.6869 0.0147095C-95.6962 0.00982666 -95.7057 0.00488281 -95.7149 0H-212.333C-212.375 0.0230713 -212.418 0.0441895 -212.461 0.0667725C-219.386 0.737671 -224.8 6.5741 -224.8 13.6779V127.172C-224.8 128.572 -225.129 129.997 -225.477 131.225C-226.161 133.636 -227.366 135.613 -229.389 137.638C-232.239 140.49 -235.34 141.763 -239.528 142.25H-353.327C-360.222 142.25 -365.924 147.356 -366.862 153.995L-367 154.292V271.612C-366.99 271.63 -366.982 271.649 -366.972 271.668C-366.535 278.828 -360.594 284.5 -353.327 284.5H-238.473C-238.032 284.5 -237.595 284.478 -237.165 284.437C-235.509 284.787 -234.076 285.25 -232.99 285.87C-227.821 288.826 -225.735 293.109 -224.95 298.255C-224.892 298.63 -224.844 299.01 -224.8 299.395V413.072C-224.8 420.626 -218.678 426.75 -211.127 426.75H-96.2731C-91.4875 426.75 -85.8346 431.162 -83.9673 434.957C-83.4361 436.037 -82.6 438.376 -82.6 440.428V555.322C-82.6 562.876 -76.4784 569 -68.9269 569H45.9269C53.4783 569 59.6 562.876 59.6 555.322L59.5866 439.918C59.5866 438.376 60.2577 436.623 60.787 435.55C62.1223 432.843 63.7968 430.889 65.7889 429.496C67.7773 428.107 71.2221 426.746 73.0941 426.746L188.127 426.75C195.678 426.75 201.8 420.626 201.8 413.072V298.251C201.8 294.758 204.822 288.821 209.996 285.873C211.086 285.252 212.738 284.5 215.473 284.5H330.327C337.598 284.5 343.54 278.823 343.972 271.658C343.981 271.641 343.99 271.622 344 271.605V154.557C343.969 154.503 343.941 154.449 343.912 154.396C343.15 147.563 337.36 142.25 330.327 142.25H216.775C212.055 142.25 208.384 140.091 205.951 137.408C203.438 134.636 201.8 131.308 201.8 125.911V13.6779C201.8 11.3694 201.224 9.19647 200.215 7.28912C200.284 7.41571 200.356 7.54309 200.425 7.67511ZM201.084 9.14172C201.072 9.10913 201.057 9.07678 201.044 9.04425C201.069 9.10602 201.093 9.16791 201.116 9.22992C201.105 9.20068 201.096 9.1709 201.084 9.14172ZM201.435 10.1462C201.423 10.1073 201.409 10.0688 201.397 10.03C201.415 10.0874 201.434 10.1447 201.451 10.2023C201.446 10.1838 201.441 10.1648 201.435 10.1462ZM201.721 11.168C201.641 10.8431 201.55 10.5214 201.451 10.2023C201.498 10.3527 201.543 10.5035 201.585 10.6552C201.633 10.8257 201.679 10.9959 201.721 11.168ZM188.127 284.5H72.5894C70.0677 284.5 68.0478 283.411 66.1094 282.053C63.3941 280.15 59.6 275.609 59.6 270.822V155.928C59.6 153.876 60.569 151.184 61.5348 149.268C63.243 145.88 67.1202 142.25 73.2731 142.25H188.127C190.862 142.25 193.377 142.871 194.691 143.523C198.144 145.237 201.8 149.773 201.8 155.928V270.822C201.8 274.242 200.742 276.954 199.749 278.345C199.749 278.345 195.647 284.5 188.127 284.5ZM-213.011 284.634C-215.386 284.158 -217.351 283.346 -218.97 282.259C-221.664 280.45 -223.34 277.928 -224.378 275.106C-224.616 274.459 -224.82 273.794 -224.996 273.116C-224.87 272.37 -224.8 271.604 -224.8 270.822V155.928C-224.8 152.508 -223.934 149.672 -222.899 148.217C-220.741 145.185 -216.596 142.25 -211.127 142.25H-96.2731C-92.1712 142.25 -88.9399 144.088 -87.0918 145.843C-84.7947 148.024 -82.6 151.141 -82.6 155.928V270.822C-82.6 274.925 -84.7164 278.069 -86.8608 280.235C-88.9705 282.366 -92.1712 284.5 -96.2731 284.5H-211.127C-211.766 284.5 -212.395 284.549 -213.011 284.634ZM45.9269 426.75H-68.9269C-73.0288 426.75 -78.4191 424.014 -80.2847 420.782C-81.6068 418.958 -82.6 415.124 -82.6 413.072V298.178C-82.6 292.707 -79.1114 288.748 -76.594 286.892L-76.1814 286.598C-74.5107 285.447 -72.3452 284.5 -69.6106 284.5H45.9269C50.7125 284.5 55.3044 287.954 57.3781 290.741C58.5958 292.377 59.6 294.758 59.6 298.178V413.072C59.6 417.859 56.0279 422.669 53.387 424.575C51.7028 425.791 49.3452 426.75 45.9269 426.75Z" fill="white"/>
</svg>
