<svg width="257" height="218" viewBox="0 0 257 218" fill="none" xmlns="http://www.w3.org/2000/svg">
<path d="M2 214C3.10457 214 4 214.895 4 216C4 217.105 3.10457 218 2 218C0.895431 218 0 217.105 0 216C0 214.895 0.895431 214 2 214ZM32 214C33.1046 214 34 214.895 34 216C34 217.105 33.1046 218 32 218C30.8954 218 30 217.105 30 216C30 214.895 30.8954 214 32 214ZM63 214C64.1046 214 65 214.895 65 216C65 217.105 64.1046 218 63 218C61.8954 218 61 217.105 61 216C61 214.895 61.8954 214 63 214ZM95 214C96.1046 214 97 214.895 97 216C97 217.105 96.1046 218 95 218C93.8954 218 93 217.105 93 216C93 214.895 93.8954 214 95 214ZM127 214C128.105 214 129 214.895 129 216C129 217.105 128.105 218 127 218C125.895 218 125 217.105 125 216C125 214.895 125.895 214 127 214ZM159 214C160.105 214 161 214.895 161 216C161 217.105 160.105 218 159 218C157.895 218 157 217.105 157 216C157 214.895 157.895 214 159 214ZM191 214C192.105 214 193 214.895 193 216C193 217.105 192.105 218 191 218C189.895 218 189 217.105 189 216C189 214.895 189.895 214 191 214ZM223 214C224.105 214 225 214.895 225 216C225 217.105 224.105 218 223 218C221.895 218 221 217.105 221 216C221 214.895 221.895 214 223 214ZM255 214C256.105 214 257 214.895 257 216C257 217.105 256.105 218 255 218C253.895 218 253 217.105 253 216C253 214.895 253.895 214 255 214ZM17 201.5C18.1046 201.5 19 202.395 19 203.5C19 204.605 18.1046 205.5 17 205.5C15.8954 205.5 15 204.605 15 203.5C15 202.395 15.8954 201.5 17 201.5ZM47 201.5C48.1046 201.5 49 202.395 49 203.5C49 204.605 48.1046 205.5 47 205.5C45.8954 205.5 45 204.605 45 203.5C45 202.395 45.8954 201.5 47 201.5ZM79 201.5C80.1046 201.5 81 202.395 81 203.5C81 204.605 80.1046 205.5 79 205.5C77.8954 205.5 77 204.605 77 203.5C77 202.395 77.8954 201.5 79 201.5ZM111 201.5C112.105 201.5 113 202.395 113 203.5C113 204.605 112.105 205.5 111 205.5C109.895 205.5 109 204.605 109 203.5C109 202.395 109.895 201.5 111 201.5ZM143 201.5C144.105 201.5 145 202.395 145 203.5C145 204.605 144.105 205.5 143 205.5C141.895 205.5 141 204.605 141 203.5C141 202.395 141.895 201.5 143 201.5ZM175 201.5C176.105 201.5 177 202.395 177 203.5C177 204.605 176.105 205.5 175 205.5C173.895 205.5 173 204.605 173 203.5C173 202.395 173.895 201.5 175 201.5ZM207 201.5C208.105 201.5 209 202.395 209 203.5C209 204.605 208.105 205.5 207 205.5C205.895 205.5 205 204.605 205 203.5C205 202.395 205.895 201.5 207 201.5ZM239 201.5C240.105 201.5 241 202.395 241 203.5C241 204.605 240.105 205.5 239 205.5C237.895 205.5 237 204.605 237 203.5C237 202.395 237.895 201.5 239 201.5ZM2 189C3.10457 189 4 189.895 4 191C4 192.105 3.10457 193 2 193C0.895431 193 0 192.105 0 191C0 189.895 0.895431 189 2 189ZM32 189C33.1046 189 34 189.895 34 191C34 192.105 33.1046 193 32 193C30.8954 193 30 192.105 30 191C30 189.895 30.8954 189 32 189ZM63 189C64.1046 189 65 189.895 65 191C65 192.105 64.1046 193 63 193C61.8954 193 61 192.105 61 191C61 189.895 61.8954 189 63 189ZM95 189C96.1046 189 97 189.895 97 191C97 192.105 96.1046 193 95 193C93.8954 193 93 192.105 93 191C93 189.895 93.8954 189 95 189ZM127 189C128.105 189 129 189.895 129 191C129 192.105 128.105 193 127 193C125.895 193 125 192.105 125 191C125 189.895 125.895 189 127 189ZM159 189C160.105 189 161 189.895 161 191C161 192.105 160.105 193 159 193C157.895 193 157 192.105 157 191C157 189.895 157.895 189 159 189ZM191 189C192.105 189 193 189.895 193 191C193 192.105 192.105 193 191 193C189.895 193 189 192.105 189 191C189 189.895 189.895 189 191 189ZM223 189C224.105 189 225 189.895 225 191C225 192.105 224.105 193 223 193C221.895 193 221 192.105 221 191C221 189.895 221.895 189 223 189ZM255 189C256.105 189 257 189.895 257 191C257 192.105 256.105 193 255 193C253.895 193 253 192.105 253 191C253 189.895 253.895 189 255 189ZM17 176.5C18.1046 176.5 19 177.395 19 178.5C19 179.605 18.1046 180.5 17 180.5C15.8954 180.5 15 179.605 15 178.5C15 177.395 15.8954 176.5 17 176.5ZM47 176.5C48.1046 176.5 49 177.395 49 178.5C49 179.605 48.1046 180.5 47 180.5C45.8954 180.5 45 179.605 45 178.5C45 177.395 45.8954 176.5 47 176.5ZM79 176.5C80.1046 176.5 81 177.395 81 178.5C81 179.605 80.1046 180.5 79 180.5C77.8954 180.5 77 179.605 77 178.5C77 177.395 77.8954 176.5 79 176.5ZM111 176.5C112.105 176.5 113 177.395 113 178.5C113 179.605 112.105 180.5 111 180.5C109.895 180.5 109 179.605 109 178.5C109 177.395 109.895 176.5 111 176.5ZM143 176.5C144.105 176.5 145 177.395 145 178.5C145 179.605 144.105 180.5 143 180.5C141.895 180.5 141 179.605 141 178.5C141 177.395 141.895 176.5 143 176.5ZM175 176.5C176.105 176.5 177 177.395 177 178.5C177 179.605 176.105 180.5 175 180.5C173.895 180.5 173 179.605 173 178.5C173 177.395 173.895 176.5 175 176.5ZM207 176.5C208.105 176.5 209 177.395 209 178.5C209 179.605 208.105 180.5 207 180.5C205.895 180.5 205 179.605 205 178.5C205 177.395 205.895 176.5 207 176.5ZM239 176.5C240.105 176.5 241 177.395 241 178.5C241 179.605 240.105 180.5 239 180.5C237.895 180.5 237 179.605 237 178.5C237 177.395 237.895 176.5 239 176.5ZM2 164C3.10457 164 4 164.895 4 166C4 167.105 3.10457 168 2 168C0.895431 168 0 167.105 0 166C0 164.895 0.895431 164 2 164ZM32 164C33.1046 164 34 164.895 34 166C34 167.105 33.1046 168 32 168C30.8954 168 30 167.105 30 166C30 164.895 30.8954 164 32 164ZM63 164C64.1046 164 65 164.895 65 166C65 167.105 64.1046 168 63 168C61.8954 168 61 167.105 61 166C61 164.895 61.8954 164 63 164ZM95 164C96.1046 164 97 164.895 97 166C97 167.105 96.1046 168 95 168C93.8954 168 93 167.105 93 166C93 164.895 93.8954 164 95 164ZM127 164C128.105 164 129 164.895 129 166C129 167.105 128.105 168 127 168C125.895 168 125 167.105 125 166C125 164.895 125.895 164 127 164ZM159 164C160.105 164 161 164.895 161 166C161 167.105 160.105 168 159 168C157.895 168 157 167.105 157 166C157 164.895 157.895 164 159 164ZM191 164C192.105 164 193 164.895 193 166C193 167.105 192.105 168 191 168C189.895 168 189 167.105 189 166C189 164.895 189.895 164 191 164ZM223 164C224.105 164 225 164.895 225 166C225 167.105 224.105 168 223 168C221.895 168 221 167.105 221 166C221 164.895 221.895 164 223 164ZM255 164C256.105 164 257 164.895 257 166C257 167.105 256.105 168 255 168C253.895 168 253 167.105 253 166C253 164.895 253.895 164 255 164ZM17 151.5C18.1046 151.5 19 152.395 19 153.5C19 154.605 18.1046 155.5 17 155.5C15.8954 155.5 15 154.605 15 153.5C15 152.395 15.8954 151.5 17 151.5ZM47 151.5C48.1046 151.5 49 152.395 49 153.5C49 154.605 48.1046 155.5 47 155.5C45.8954 155.5 45 154.605 45 153.5C45 152.395 45.8954 151.5 47 151.5ZM79 151.5C80.1046 151.5 81 152.395 81 153.5C81 154.605 80.1046 155.5 79 155.5C77.8954 155.5 77 154.605 77 153.5C77 152.395 77.8954 151.5 79 151.5ZM111 151.5C112.105 151.5 113 152.395 113 153.5C113 154.605 112.105 155.5 111 155.5C109.895 155.5 109 154.605 109 153.5C109 152.395 109.895 151.5 111 151.5ZM143 151.5C144.105 151.5 145 152.395 145 153.5C145 154.605 144.105 155.5 143 155.5C141.895 155.5 141 154.605 141 153.5C141 152.395 141.895 151.5 143 151.5ZM175 151.5C176.105 151.5 177 152.395 177 153.5C177 154.605 176.105 155.5 175 155.5C173.895 155.5 173 154.605 173 153.5C173 152.395 173.895 151.5 175 151.5ZM207 151.5C208.105 151.5 209 152.395 209 153.5C209 154.605 208.105 155.5 207 155.5C205.895 155.5 205 154.605 205 153.5C205 152.395 205.895 151.5 207 151.5ZM239 151.5C240.105 151.5 241 152.395 241 153.5C241 154.605 240.105 155.5 239 155.5C237.895 155.5 237 154.605 237 153.5C237 152.395 237.895 151.5 239 151.5ZM2 139C3.10457 139 4 139.895 4 141C4 142.105 3.10457 143 2 143C0.895431 143 0 142.105 0 141C0 139.895 0.895431 139 2 139ZM32 139C33.1046 139 34 139.895 34 141C34 142.105 33.1046 143 32 143C30.8954 143 30 142.105 30 141C30 139.895 30.8954 139 32 139ZM63 139C64.1046 139 65 139.895 65 141C65 142.105 64.1046 143 63 143C61.8954 143 61 142.105 61 141C61 139.895 61.8954 139 63 139ZM95 139C96.1046 139 97 139.895 97 141C97 142.105 96.1046 143 95 143C93.8954 143 93 142.105 93 141C93 139.895 93.8954 139 95 139ZM127 139C128.105 139 129 139.895 129 141C129 142.105 128.105 143 127 143C125.895 143 125 142.105 125 141C125 139.895 125.895 139 127 139ZM159 139C160.105 139 161 139.895 161 141C161 142.105 160.105 143 159 143C157.895 143 157 142.105 157 141C157 139.895 157.895 139 159 139ZM191 139C192.105 139 193 139.895 193 141C193 142.105 192.105 143 191 143C189.895 143 189 142.105 189 141C189 139.895 189.895 139 191 139ZM223 139C224.105 139 225 139.895 225 141C225 142.105 224.105 143 223 143C221.895 143 221 142.105 221 141C221 139.895 221.895 139 223 139ZM255 139C256.105 139 257 139.895 257 141C257 142.105 256.105 143 255 143C253.895 143 253 142.105 253 141C253 139.895 253.895 139 255 139ZM17 126.5C18.1046 126.5 19 127.395 19 128.5C19 129.605 18.1046 130.5 17 130.5C15.8954 130.5 15 129.605 15 128.5C15 127.395 15.8954 126.5 17 126.5ZM47 126.5C48.1046 126.5 49 127.395 49 128.5C49 129.605 48.1046 130.5 47 130.5C45.8954 130.5 45 129.605 45 128.5C45 127.395 45.8954 126.5 47 126.5ZM79 126.5C80.1046 126.5 81 127.395 81 128.5C81 129.605 80.1046 130.5 79 130.5C77.8954 130.5 77 129.605 77 128.5C77 127.395 77.8954 126.5 79 126.5ZM111 126.5C112.105 126.5 113 127.395 113 128.5C113 129.605 112.105 130.5 111 130.5C109.895 130.5 109 129.605 109 128.5C109 127.395 109.895 126.5 111 126.5ZM143 126.5C144.105 126.5 145 127.395 145 128.5C145 129.605 144.105 130.5 143 130.5C141.895 130.5 141 129.605 141 128.5C141 127.395 141.895 126.5 143 126.5ZM175 126.5C176.105 126.5 177 127.395 177 128.5C177 129.605 176.105 130.5 175 130.5C173.895 130.5 173 129.605 173 128.5C173 127.395 173.895 126.5 175 126.5ZM207 126.5C208.105 126.5 209 127.395 209 128.5C209 129.605 208.105 130.5 207 130.5C205.895 130.5 205 129.605 205 128.5C205 127.395 205.895 126.5 207 126.5ZM239 126.5C240.105 126.5 241 127.395 241 128.5C241 129.605 240.105 130.5 239 130.5C237.895 130.5 237 129.605 237 128.5C237 127.395 237.895 126.5 239 126.5ZM2 114C3.10457 114 4 114.895 4 116C4 117.105 3.10457 118 2 118C0.895431 118 0 117.105 0 116C0 114.895 0.895431 114 2 114ZM32 114C33.1046 114 34 114.895 34 116C34 117.105 33.1046 118 32 118C30.8954 118 30 117.105 30 116C30 114.895 30.8954 114 32 114ZM63 114C64.1046 114 65 114.895 65 116C65 117.105 64.1046 118 63 118C61.8954 118 61 117.105 61 116C61 114.895 61.8954 114 63 114ZM95 114C96.1046 114 97 114.895 97 116C97 117.105 96.1046 118 95 118C93.8954 118 93 117.105 93 116C93 114.895 93.8954 114 95 114ZM127 114C128.105 114 129 114.895 129 116C129 117.105 128.105 118 127 118C125.895 118 125 117.105 125 116C125 114.895 125.895 114 127 114ZM159 114C160.105 114 161 114.895 161 116C161 117.105 160.105 118 159 118C157.895 118 157 117.105 157 116C157 114.895 157.895 114 159 114ZM191 114C192.105 114 193 114.895 193 116C193 117.105 192.105 118 191 118C189.895 118 189 117.105 189 116C189 114.895 189.895 114 191 114ZM223 114C224.105 114 225 114.895 225 116C225 117.105 224.105 118 223 118C221.895 118 221 117.105 221 116C221 114.895 221.895 114 223 114ZM255 114C256.105 114 257 114.895 257 116C257 117.105 256.105 118 255 118C253.895 118 253 117.105 253 116C253 114.895 253.895 114 255 114ZM17 101.5C18.1046 101.5 19 102.395 19 103.5C19 104.605 18.1046 105.5 17 105.5C15.8954 105.5 15 104.605 15 103.5C15 102.395 15.8954 101.5 17 101.5ZM47 101.5C48.1046 101.5 49 102.395 49 103.5C49 104.605 48.1046 105.5 47 105.5C45.8954 105.5 45 104.605 45 103.5C45 102.395 45.8954 101.5 47 101.5ZM79 101.5C80.1046 101.5 81 102.395 81 103.5C81 104.605 80.1046 105.5 79 105.5C77.8954 105.5 77 104.605 77 103.5C77 102.395 77.8954 101.5 79 101.5ZM111 101.5C112.105 101.5 113 102.395 113 103.5C113 104.605 112.105 105.5 111 105.5C109.895 105.5 109 104.605 109 103.5C109 102.395 109.895 101.5 111 101.5ZM143 101.5C144.105 101.5 145 102.395 145 103.5C145 104.605 144.105 105.5 143 105.5C141.895 105.5 141 104.605 141 103.5C141 102.395 141.895 101.5 143 101.5ZM175 101.5C176.105 101.5 177 102.395 177 103.5C177 104.605 176.105 105.5 175 105.5C173.895 105.5 173 104.605 173 103.5C173 102.395 173.895 101.5 175 101.5ZM207 101.5C208.105 101.5 209 102.395 209 103.5C209 104.605 208.105 105.5 207 105.5C205.895 105.5 205 104.605 205 103.5C205 102.395 205.895 101.5 207 101.5ZM239 101.5C240.105 101.5 241 102.395 241 103.5C241 104.605 240.105 105.5 239 105.5C237.895 105.5 237 104.605 237 103.5C237 102.395 237.895 101.5 239 101.5ZM2 89C3.10457 89 4 89.8954 4 91C4 92.1046 3.10457 93 2 93C0.895431 93 0 92.1046 0 91C0 89.8954 0.895431 89 2 89ZM32 89C33.1046 89 34 89.8954 34 91C34 92.1046 33.1046 93 32 93C30.8954 93 30 92.1046 30 91C30 89.8954 30.8954 89 32 89ZM63 89C64.1046 89 65 89.8954 65 91C65 92.1046 64.1046 93 63 93C61.8954 93 61 92.1046 61 91C61 89.8954 61.8954 89 63 89ZM95 89C96.1046 89 97 89.8954 97 91C97 92.1046 96.1046 93 95 93C93.8954 93 93 92.1046 93 91C93 89.8954 93.8954 89 95 89ZM127 89C128.105 89 129 89.8954 129 91C129 92.1046 128.105 93 127 93C125.895 93 125 92.1046 125 91C125 89.8954 125.895 89 127 89ZM159 89C160.105 89 161 89.8954 161 91C161 92.1046 160.105 93 159 93C157.895 93 157 92.1046 157 91C157 89.8954 157.895 89 159 89ZM191 89C192.105 89 193 89.8954 193 91C193 92.1046 192.105 93 191 93C189.895 93 189 92.1046 189 91C189 89.8954 189.895 89 191 89ZM223 89C224.105 89 225 89.8954 225 91C225 92.1046 224.105 93 223 93C221.895 93 221 92.1046 221 91C221 89.8954 221.895 89 223 89ZM255 89C256.105 89 257 89.8954 257 91C257 92.1046 256.105 93 255 93C253.895 93 253 92.1046 253 91C253 89.8954 253.895 89 255 89ZM17 76.5C18.1046 76.5 19 77.3954 19 78.5C19 79.6046 18.1046 80.5 17 80.5C15.8954 80.5 15 79.6046 15 78.5C15 77.3954 15.8954 76.5 17 76.5ZM47 76.5C48.1046 76.5 49 77.3954 49 78.5C49 79.6046 48.1046 80.5 47 80.5C45.8954 80.5 45 79.6046 45 78.5C45 77.3954 45.8954 76.5 47 76.5ZM79 76.5C80.1046 76.5 81 77.3954 81 78.5C81 79.6046 80.1046 80.5 79 80.5C77.8954 80.5 77 79.6046 77 78.5C77 77.3954 77.8954 76.5 79 76.5ZM111 76.5C112.105 76.5 113 77.3954 113 78.5C113 79.6046 112.105 80.5 111 80.5C109.895 80.5 109 79.6046 109 78.5C109 77.3954 109.895 76.5 111 76.5ZM143 76.5C144.105 76.5 145 77.3954 145 78.5C145 79.6046 144.105 80.5 143 80.5C141.895 80.5 141 79.6046 141 78.5C141 77.3954 141.895 76.5 143 76.5ZM175 76.5C176.105 76.5 177 77.3954 177 78.5C177 79.6046 176.105 80.5 175 80.5C173.895 80.5 173 79.6046 173 78.5C173 77.3954 173.895 76.5 175 76.5ZM207 76.5C208.105 76.5 209 77.3954 209 78.5C209 79.6046 208.105 80.5 207 80.5C205.895 80.5 205 79.6046 205 78.5C205 77.3954 205.895 76.5 207 76.5ZM239 76.5C240.105 76.5 241 77.3954 241 78.5C241 79.6046 240.105 80.5 239 80.5C237.895 80.5 237 79.6046 237 78.5C237 77.3954 237.895 76.5 239 76.5ZM2 64C3.10457 64 4 64.8954 4 66C4 67.1046 3.10457 68 2 68C0.895431 68 0 67.1046 0 66C0 64.8954 0.895431 64 2 64ZM32 64C33.1046 64 34 64.8954 34 66C34 67.1046 33.1046 68 32 68C30.8954 68 30 67.1046 30 66C30 64.8954 30.8954 64 32 64ZM63 64C64.1046 64 65 64.8954 65 66C65 67.1046 64.1046 68 63 68C61.8954 68 61 67.1046 61 66C61 64.8954 61.8954 64 63 64ZM95 64C96.1046 64 97 64.8954 97 66C97 67.1046 96.1046 68 95 68C93.8954 68 93 67.1046 93 66C93 64.8954 93.8954 64 95 64ZM127 64C128.105 64 129 64.8954 129 66C129 67.1046 128.105 68 127 68C125.895 68 125 67.1046 125 66C125 64.8954 125.895 64 127 64ZM159 64C160.105 64 161 64.8954 161 66C161 67.1046 160.105 68 159 68C157.895 68 157 67.1046 157 66C157 64.8954 157.895 64 159 64ZM191 64C192.105 64 193 64.8954 193 66C193 67.1046 192.105 68 191 68C189.895 68 189 67.1046 189 66C189 64.8954 189.895 64 191 64ZM223 64C224.105 64 225 64.8954 225 66C225 67.1046 224.105 68 223 68C221.895 68 221 67.1046 221 66C221 64.8954 221.895 64 223 64ZM255 64C256.105 64 257 64.8954 257 66C257 67.1046 256.105 68 255 68C253.895 68 253 67.1046 253 66C253 64.8954 253.895 64 255 64ZM17 51.5C18.1046 51.5 19 52.3954 19 53.5C19 54.6046 18.1046 55.5 17 55.5C15.8954 55.5 15 54.6046 15 53.5C15 52.3954 15.8954 51.5 17 51.5ZM47 51.5C48.1046 51.5 49 52.3954 49 53.5C49 54.6046 48.1046 55.5 47 55.5C45.8954 55.5 45 54.6046 45 53.5C45 52.3954 45.8954 51.5 47 51.5ZM79 51.5C80.1046 51.5 81 52.3954 81 53.5C81 54.6046 80.1046 55.5 79 55.5C77.8954 55.5 77 54.6046 77 53.5C77 52.3954 77.8954 51.5 79 51.5ZM111 51.5C112.105 51.5 113 52.3954 113 53.5C113 54.6046 112.105 55.5 111 55.5C109.895 55.5 109 54.6046 109 53.5C109 52.3954 109.895 51.5 111 51.5ZM143 51.5C144.105 51.5 145 52.3954 145 53.5C145 54.6046 144.105 55.5 143 55.5C141.895 55.5 141 54.6046 141 53.5C141 52.3954 141.895 51.5 143 51.5ZM175 51.5C176.105 51.5 177 52.3954 177 53.5C177 54.6046 176.105 55.5 175 55.5C173.895 55.5 173 54.6046 173 53.5C173 52.3954 173.895 51.5 175 51.5ZM207 51.5C208.105 51.5 209 52.3954 209 53.5C209 54.6046 208.105 55.5 207 55.5C205.895 55.5 205 54.6046 205 53.5C205 52.3954 205.895 51.5 207 51.5ZM239 51.5C240.105 51.5 241 52.3954 241 53.5C241 54.6046 240.105 55.5 239 55.5C237.895 55.5 237 54.6046 237 53.5C237 52.3954 237.895 51.5 239 51.5ZM2 39C3.10457 39 4 39.8954 4 41C4 42.1046 3.10457 43 2 43C0.895431 43 0 42.1046 0 41C0 39.8954 0.895431 39 2 39ZM32 39C33.1046 39 34 39.8954 34 41C34 42.1046 33.1046 43 32 43C30.8954 43 30 42.1046 30 41C30 39.8954 30.8954 39 32 39ZM63 39C64.1046 39 65 39.8954 65 41C65 42.1046 64.1046 43 63 43C61.8954 43 61 42.1046 61 41C61 39.8954 61.8954 39 63 39ZM95 39C96.1046 39 97 39.8954 97 41C97 42.1046 96.1046 43 95 43C93.8954 43 93 42.1046 93 41C93 39.8954 93.8954 39 95 39ZM127 39C128.105 39 129 39.8954 129 41C129 42.1046 128.105 43 127 43C125.895 43 125 42.1046 125 41C125 39.8954 125.895 39 127 39ZM159 39C160.105 39 161 39.8954 161 41C161 42.1046 160.105 43 159 43C157.895 43 157 42.1046 157 41C157 39.8954 157.895 39 159 39ZM191 39C192.105 39 193 39.8954 193 41C193 42.1046 192.105 43 191 43C189.895 43 189 42.1046 189 41C189 39.8954 189.895 39 191 39ZM223 39C224.105 39 225 39.8954 225 41C225 42.1046 224.105 43 223 43C221.895 43 221 42.1046 221 41C221 39.8954 221.895 39 223 39ZM255 39C256.105 39 257 39.8954 257 41C257 42.1046 256.105 43 255 43C253.895 43 253 42.1046 253 41C253 39.8954 253.895 39 255 39ZM17 26.5C18.1046 26.5 19 27.3954 19 28.5C19 29.6046 18.1046 30.5 17 30.5C15.8954 30.5 15 29.6046 15 28.5C15 27.3954 15.8954 26.5 17 26.5ZM47 26.5C48.1046 26.5 49 27.3954 49 28.5C49 29.6046 48.1046 30.5 47 30.5C45.8954 30.5 45 29.6046 45 28.5C45 27.3954 45.8954 26.5 47 26.5ZM79 26.5C80.1046 26.5 81 27.3954 81 28.5C81 29.6046 80.1046 30.5 79 30.5C77.8954 30.5 77 29.6046 77 28.5C77 27.3954 77.8954 26.5 79 26.5ZM111 26.5C112.105 26.5 113 27.3954 113 28.5C113 29.6046 112.105 30.5 111 30.5C109.895 30.5 109 29.6046 109 28.5C109 27.3954 109.895 26.5 111 26.5ZM143 26.5C144.105 26.5 145 27.3954 145 28.5C145 29.6046 144.105 30.5 143 30.5C141.895 30.5 141 29.6046 141 28.5C141 27.3954 141.895 26.5 143 26.5ZM175 26.5C176.105 26.5 177 27.3954 177 28.5C177 29.6046 176.105 30.5 175 30.5C173.895 30.5 173 29.6046 173 28.5C173 27.3954 173.895 26.5 175 26.5ZM207 26.5C208.105 26.5 209 27.3954 209 28.5C209 29.6046 208.105 30.5 207 30.5C205.895 30.5 205 29.6046 205 28.5C205 27.3954 205.895 26.5 207 26.5ZM239 26.5C240.105 26.5 241 27.3954 241 28.5C241 29.6046 240.105 30.5 239 30.5C237.895 30.5 237 29.6046 237 28.5C237 27.3954 237.895 26.5 239 26.5ZM2 14C3.10457 14 4 14.8954 4 16C4 17.1046 3.10457 18 2 18C0.895431 18 0 17.1046 0 16C0 14.8954 0.895431 14 2 14ZM32 14C33.1046 14 34 14.8954 34 16C34 17.1046 33.1046 18 32 18C30.8954 18 30 17.1046 30 16C30 14.8954 30.8954 14 32 14ZM63 14C64.1046 14 65 14.8954 65 16C65 17.1046 64.1046 18 63 18C61.8954 18 61 17.1046 61 16C61 14.8954 61.8954 14 63 14ZM95 14C96.1046 14 97 14.8954 97 16C97 17.1046 96.1046 18 95 18C93.8954 18 93 17.1046 93 16C93 14.8954 93.8954 14 95 14ZM127 14C128.105 14 129 14.8954 129 16C129 17.1046 128.105 18 127 18C125.895 18 125 17.1046 125 16C125 14.8954 125.895 14 127 14ZM159 14C160.105 14 161 14.8954 161 16C161 17.1046 160.105 18 159 18C157.895 18 157 17.1046 157 16C157 14.8954 157.895 14 159 14ZM191 14C192.105 14 193 14.8954 193 16C193 17.1046 192.105 18 191 18C189.895 18 189 17.1046 189 16C189 14.8954 189.895 14 191 14ZM223 14C224.105 14 225 14.8954 225 16C225 17.1046 224.105 18 223 18C221.895 18 221 17.1046 221 16C221 14.8954 221.895 14 223 14ZM255 14C256.105 14 257 14.8954 257 16C257 17.1046 256.105 18 255 18C253.895 18 253 17.1046 253 16C253 14.8954 253.895 14 255 14ZM17 1.5C18.1046 1.5 19 2.39543 19 3.5C19 4.60457 18.1046 5.5 17 5.5C15.8954 5.5 15 4.60457 15 3.5C15 2.39543 15.8954 1.5 17 1.5ZM47 1.5C48.1046 1.5 49 2.39543 49 3.5C49 4.60457 48.1046 5.5 47 5.5C45.8954 5.5 45 4.60457 45 3.5C45 2.39543 45.8954 1.5 47 1.5ZM79 1.5C80.1046 1.5 81 2.39543 81 3.5C81 4.60457 80.1046 5.5 79 5.5C77.8954 5.5 77 4.60457 77 3.5C77 2.39543 77.8954 1.5 79 1.5ZM111 1.5C112.105 1.5 113 2.39543 113 3.5C113 4.60457 112.105 5.5 111 5.5C109.895 5.5 109 4.60457 109 3.5C109 2.39543 109.895 1.5 111 1.5ZM143 1.5C144.105 1.5 145 2.39543 145 3.5C145 4.60457 144.105 5.5 143 5.5C141.895 5.5 141 4.60457 141 3.5C141 2.39543 141.895 1.5 143 1.5ZM175 1.5C176.105 1.5 177 2.39543 177 3.5C177 4.60457 176.105 5.5 175 5.5C173.895 5.5 173 4.60457 173 3.5C173 2.39543 173.895 1.5 175 1.5ZM207 1.5C208.105 1.5 209 2.39543 209 3.5C209 4.60457 208.105 5.5 207 5.5C205.895 5.5 205 4.60457 205 3.5C205 2.39543 205.895 1.5 207 1.5ZM239 1.5C240.105 1.5 241 2.39543 241 3.5C241 4.60457 240.105 5.5 239 5.5C237.895 5.5 237 4.60457 237 3.5C237 2.39543 237.895 1.5 239 1.5ZM2 -11C3.10457 -11 4 -10.1046 4 -9C4 -7.89543 3.10457 -7 2 -7C0.895431 -7 0 -7.89543 0 -9C0 -10.1046 0.895431 -11 2 -11ZM32 -11C33.1046 -11 34 -10.1046 34 -9C34 -7.89543 33.1046 -7 32 -7C30.8954 -7 30 -7.89543 30 -9C30 -10.1046 30.8954 -11 32 -11ZM63 -11C64.1046 -11 65 -10.1046 65 -9C65 -7.89543 64.1046 -7 63 -7C61.8954 -7 61 -7.89543 61 -9C61 -10.1046 61.8954 -11 63 -11ZM95 -11C96.1046 -11 97 -10.1046 97 -9C97 -7.89543 96.1046 -7 95 -7C93.8954 -7 93 -7.89543 93 -9C93 -10.1046 93.8954 -11 95 -11ZM127 -11C128.105 -11 129 -10.1046 129 -9C129 -7.89543 128.105 -7 127 -7C125.895 -7 125 -7.89543 125 -9C125 -10.1046 125.895 -11 127 -11ZM159 -11C160.105 -11 161 -10.1046 161 -9C161 -7.89543 160.105 -7 159 -7C157.895 -7 157 -7.89543 157 -9C157 -10.1046 157.895 -11 159 -11ZM191 -11C192.105 -11 193 -10.1046 193 -9C193 -7.89543 192.105 -7 191 -7C189.895 -7 189 -7.89543 189 -9C189 -10.1046 189.895 -11 191 -11ZM223 -11C224.105 -11 225 -10.1046 225 -9C225 -7.89543 224.105 -7 223 -7C221.895 -7 221 -7.89543 221 -9C221 -10.1046 221.895 -11 223 -11ZM255 -11C256.105 -11 257 -10.1046 257 -9C257 -7.89543 256.105 -7 255 -7C253.895 -7 253 -7.89543 253 -9C253 -10.1046 253.895 -11 255 -11Z" fill="url(#paint0_radial_221_923)"/>
<defs>
<radialGradient id="paint0_radial_221_923" cx="0" cy="0" r="1" gradientTransform="matrix(-208.5 245.538 -282.455 -247.763 315 -54)" gradientUnits="userSpaceOnUse">
<stop stop-color="#07A276"/>
<stop offset="1" stop-color="#07A276" stop-opacity="0"/>
</radialGradient>
</defs>
</svg>
