<svg width="788" height="859" viewBox="0 0 788 859" fill="none" xmlns="http://www.w3.org/2000/svg">
<g filter="url(#filter0_i_588_337)">
<path d="M832 755H802V859H518V755H310V651H206V547H102V129H206V25H310V0H832V755ZM728 25H802V753H830V2H728V25ZM312 25H414V2H312V25ZM416 25H518V2H416V25ZM520 25H622V2H520V25ZM624 25H726V2H624V25Z" fill="white"/>
</g>
<path d="M624 130V131H625V130H624ZM520 26V25H519V26H520ZM624 26H625V25H624V26ZM624 130V129H528V130V131H624V130ZM520 122H521V26H520H519V122H520ZM520 26V27H624V26V25H520V26ZM624 26H623V130H624H625V26H624ZM528 130V129C524.134 129 521 125.866 521 122H520H519C519 126.971 523.029 131 528 131V130Z" fill="#D5CFFE"/>
<path d="M802 234V235H803V234H802ZM802 130H803V129H802V130ZM802 234V233H728V234V235H802V234ZM728 130V131H802V130V129H728V130ZM802 130H801V234H802H803V130H802Z" fill="#D5CFFE"/>
<path d="M728 234V235H729V234H728ZM624 130V129H623V130H624ZM728 130H729V129H728V130ZM728 234V233H632V234V235H728V234ZM624 226H625V130H624H623V226H624ZM624 130V131H728V130V129H624V130ZM728 130H727V234H728H729V130H728ZM632 234V233C628.134 233 625 229.866 625 226H624H623C623 230.971 627.029 235 632 235V234Z" fill="#D5CFFE"/>
<path d="M728 234V233H727V234H728ZM832 234H833V233H832V234ZM832 338V339H833V338H832ZM728 234V235H832V234V233H728V234ZM832 234H831V338H832H833V234H832ZM832 338V337H736V338V339H832V338ZM728 330H729V234H728H727V330H728ZM736 338V337C732.134 337 729 333.866 729 330H728H727C727 334.971 731.029 339 736 339V338Z" fill="#D5CFFE"/>
<path d="M208 234H207V235H208V234ZM208 130V129H207V130H208ZM312 130H313V129H312V130ZM304 234V233H208V234V235H304V234ZM208 234H209V130H208H207V234H208ZM208 130V131H312V130V129H208V130ZM312 130H311V226H312H313V130H312ZM304 234V235C308.971 235 313 230.971 313 226H312H311C311 229.866 307.866 233 304 233V234Z" fill="#D5CFFE"/>
<path d="M209 330C209 334.971 204.971 339 200 339H104V337H200C203.866 337 207 333.866 207 330H209ZM104 233H209L207 235H104V233ZM209 233V330C209 334.971 204.971 339 200 339V337C203.866 337 207 333.866 207 330V235L209 233ZM104 338V234V338Z" fill="#D5CFFE"/>
<path d="M802 650V651H803V650H802ZM728 650H727V651H728V650ZM802 442H803V441H802V442ZM802 650V649H728V650V651H802V650ZM728 650H729V450H728H727V650H728ZM736 442V443H802V442V441H736V442ZM802 442H801V650H802H803V442H802ZM728 450H729C729 446.134 732.134 443 736 443V442V441C731.029 441 727 445.029 727 450H728Z" fill="#D5CFFE"/>
<path d="M802 546H632C627.582 546 624 549.582 624 554V650H802V546Z" stroke="#D5CFFE" stroke-width="2"/>
<path d="M520 554C520 549.582 516.418 546 512 546H424C419.582 546 416 549.582 416 554V650H520V554Z" stroke="#D5CFFE" stroke-width="2"/>
<path d="M312 650V651H416V650V649H312V650Z" fill="#D5CFFE"/>
<rect width="282" height="104" transform="matrix(-1 0 0 1 802 650)" stroke="#D5CFFE" stroke-width="2"/>
<path d="M209 450C209 445.029 204.971 441 200 441H104V443H200C203.866 443 207 446.134 207 450H209ZM104 546H208H104ZM209 546V450C209 445.029 204.971 441 200 441V443C203.866 443 207 446.134 207 450V546H209ZM104 442V546V442Z" fill="#D5CFFE"/>
<path d="M312 650H208H312ZM208 545H304C308.971 545 313 549.029 313 554H311C311 550.134 307.866 547 304 547H208V545ZM304 545C308.971 545 313 549.029 313 554V650H311V554C311 550.134 307.866 547 304 547V545ZM208 650V546V650Z" fill="#D5CFFE"/>
<path d="M312 1H416V122C416 126.418 412.418 130 408 130H312V1Z" stroke="#D5CFFE" stroke-width="2"/>
<path d="M416 650V649H415V650H416ZM520 650H521V649H520V650ZM416 650V651H520V650V649H416V650ZM520 650H519V754H520H521V650H520ZM416 754H417V650H416H415V754H416Z" fill="#D5CFFE"/>
<path d="M624 754V753H623V754H624ZM728 754H729V753H728V754ZM624 754V755H728V754V753H624V754ZM728 754H727V859H728H729V754H728ZM624 859H625V754H624H623V859H624Z" fill="#D5CFFE"/>
<path d="M624 754V755H623V754H624ZM728 754H729V755H728V754ZM624 754V753H728V754V755H624V754ZM728 754H727V650H728H729V754H728ZM624 650H625V754H624H623V650H624Z" fill="#D5CFFE"/>
<rect x="728" y="1" width="104" height="129" stroke="#D5CFFE" stroke-width="2"/>
<g filter="url(#filter1_i_588_337)">
<mask id="mask0_588_337" style="mask-type:alpha" maskUnits="userSpaceOnUse" x="207" y="130" width="520" height="416">
<path d="M621.994 540.389C621.94 540.494 621.883 540.596 621.828 540.697C621.673 540.988 621.505 541.27 621.323 541.543C621.307 541.568 621.289 541.593 621.272 541.617C621.06 541.937 620.844 542.228 620.623 542.494C620.838 542.235 621.047 541.951 621.255 541.642C619.627 544.019 617.001 545.658 613.979 545.951C613.947 545.968 613.916 545.983 613.885 546H528.594C528.587 545.996 528.58 545.993 528.573 545.989C523.248 545.766 519 541.38 519 536V452C519 446.5 514 442 509 442H425C420.5 442 415 446.5 415 452V536C415 541.379 410.753 545.765 405.429 545.989C405.422 545.993 405.415 545.996 405.408 546H320.118C320.087 545.983 320.055 545.968 320.024 545.951C314.959 545.461 311 541.194 311 536V453.023C311 452 310.76 450.958 310.505 450.061C310.005 448.298 309.123 446.853 307.644 445.372C305.559 443.287 303.291 442.356 300.229 442H217C211.957 442 207.787 438.267 207.101 433.413L207 433.196V347.423C207.007 347.409 207.013 347.395 207.021 347.382C207.34 342.147 211.685 338 217 338H301C301.323 338 301.642 338.016 301.957 338.046C303.168 337.79 304.216 337.452 305.01 336.998C308.791 334.837 310.316 331.706 310.891 327.943C310.932 327.67 310.968 327.392 311 327.11V244C311 238.477 315.477 234 321 234H405C408.5 234 412.634 230.775 414 228C414.389 227.21 415 225.5 415 224V140C415 134.477 419.477 130 425 130H509C514.523 130 519 134.477 519 140L518.99 224.373C518.99 225.5 519.481 226.782 519.868 227.566C520.845 229.546 522.069 230.974 523.526 231.992C524.981 233.008 527.5 234.003 528.869 234.003L613 234C618.523 234 623 238.477 623 244V327.946C623 330.5 625.21 334.841 628.994 336.996C629.791 337.45 631 338 633 338H717C722.318 338 726.664 342.151 726.979 347.389C726.986 347.401 726.993 347.415 727 347.428V433.002C726.978 433.041 726.957 433.081 726.936 433.12C726.379 438.116 722.144 442 717 442H633.952C630.5 442 627.815 443.579 626.036 445.54C624.198 447.567 623 450 623 453.945V536C623 537.688 622.579 539.276 621.841 540.671C621.891 540.578 621.944 540.485 621.994 540.389ZM622.477 539.316C622.467 539.34 622.457 539.364 622.447 539.388C622.465 539.343 622.483 539.297 622.5 539.252C622.492 539.273 622.485 539.295 622.477 539.316ZM622.733 538.582C622.724 538.61 622.714 538.639 622.705 538.667C622.719 538.625 622.732 538.583 622.745 538.541C622.741 538.555 622.738 538.568 622.733 538.582ZM622.942 537.835C622.884 538.073 622.817 538.308 622.745 538.541C622.779 538.431 622.812 538.321 622.843 538.21C622.878 538.085 622.911 537.961 622.942 537.835ZM613 338H605.836H528.5C526.656 338 525.178 338.796 523.761 339.789C521.775 341.18 519 344.5 519 348V432C519 433.5 519.709 435.469 520.415 436.869C521.664 439.346 524.5 442 529 442H613C615 442 616.84 441.546 617.801 441.069C620.326 439.816 623 436.5 623 432V348C623 345.5 622.226 343.517 621.5 342.5C621.5 342.5 618.5 338 613 338ZM319.622 337.902C317.885 338.25 316.448 338.844 315.264 339.639C313.294 340.961 312.068 342.805 311.309 344.868C311.135 345.341 310.985 345.828 310.856 346.323C310.949 346.869 311 347.428 311 348V432C311 434.5 311.633 436.574 312.391 437.638C313.968 439.854 317 442 321 442H405C408 442 410.363 440.656 411.715 439.373C413.395 437.778 415 435.5 415 432V348C415 345 413.452 342.702 411.884 341.118C410.341 339.56 408 338 405 338H321C320.532 338 320.073 337.964 319.622 337.902ZM509 234H425C422 234 418.058 236 416.693 238.363C415.726 239.697 415 242.5 415 244V328C415 332 417.551 334.894 419.393 336.251L419.694 336.466C420.916 337.307 422.5 338 424.5 338H509C512.5 338 515.858 335.475 517.375 333.438C518.266 332.241 519 330.5 519 328V244C519 240.5 516.388 236.983 514.456 235.59C513.224 234.701 511.5 234 509 234Z" fill="#FFFF00"/>
</mask>
<g mask="url(#mask0_588_337)">
<g filter="url(#filter2_f_588_337)">
<circle cx="467" cy="338" r="305" fill="white"/>
</g>
<g filter="url(#filter3_f_588_337)">
<circle cx="468" cy="576" r="134" fill="#7863FC"/>
</g>
<g filter="url(#filter4_f_588_337)">
<circle cx="257" cy="529" r="134" fill="#7863FC" fill-opacity="0.8"/>
</g>
<g filter="url(#filter5_f_588_337)">
<circle cx="623" cy="166" r="134" fill="#7863FC" fill-opacity="0.2"/>
</g>
<g filter="url(#filter6_f_588_337)">
<circle cx="300" cy="166" r="134" fill="#7863FC" fill-opacity="0.2"/>
</g>
<g filter="url(#filter7_f_588_337)">
<circle cx="676" cy="529" r="134" fill="#7863FC" fill-opacity="0.8"/>
</g>
<g filter="url(#filter8_f_588_337)">
<circle cx="623" cy="642" r="134" fill="#5546B3"/>
</g>
<g filter="url(#filter9_f_588_337)">
<circle cx="311" cy="642" r="134" fill="#7863FC"/>
</g>
<g filter="url(#filter10_f_588_337)">
<circle cx="311" cy="642" r="134" fill="#5546B3"/>
</g>
<g filter="url(#filter11_f_588_337)">
<circle cx="468" cy="474" r="105" fill="#7863FC"/>
</g>
<g filter="url(#filter12_f_588_337)">
<ellipse cx="435" cy="326" rx="105" ry="76" fill="#7863FC"/>
</g>
</g>
</g>
<defs>
<filter id="filter0_i_588_337" x="102" y="-4" width="738" height="863" filterUnits="userSpaceOnUse" color-interpolation-filters="sRGB">
<feFlood flood-opacity="0" result="BackgroundImageFix"/>
<feBlend mode="normal" in="SourceGraphic" in2="BackgroundImageFix" result="shape"/>
<feColorMatrix in="SourceAlpha" type="matrix" values="0 0 0 0 0 0 0 0 0 0 0 0 0 0 0 0 0 0 127 0" result="hardAlpha"/>
<feOffset dx="8" dy="-4"/>
<feGaussianBlur stdDeviation="6"/>
<feComposite in2="hardAlpha" operator="arithmetic" k2="-1" k3="1"/>
<feColorMatrix type="matrix" values="0 0 0 0 0.258824 0 0 0 0 0.211765 0 0 0 0 0.545098 0 0 0 0.12 0"/>
<feBlend mode="normal" in2="shape" result="effect1_innerShadow_588_337"/>
</filter>
<filter id="filter1_i_588_337" x="207" y="130" width="520" height="420" filterUnits="userSpaceOnUse" color-interpolation-filters="sRGB">
<feFlood flood-opacity="0" result="BackgroundImageFix"/>
<feBlend mode="normal" in="SourceGraphic" in2="BackgroundImageFix" result="shape"/>
<feColorMatrix in="SourceAlpha" type="matrix" values="0 0 0 0 0 0 0 0 0 0 0 0 0 0 0 0 0 0 127 0" result="hardAlpha"/>
<feOffset dy="4"/>
<feGaussianBlur stdDeviation="6"/>
<feComposite in2="hardAlpha" operator="arithmetic" k2="-1" k3="1"/>
<feColorMatrix type="matrix" values="0 0 0 0 0 0 0 0 0 0 0 0 0 0 0 0 0 0 0.24 0"/>
<feBlend mode="normal" in2="shape" result="effect1_innerShadow_588_337"/>
</filter>
<filter id="filter2_f_588_337" x="62" y="-67" width="810" height="810" filterUnits="userSpaceOnUse" color-interpolation-filters="sRGB">
<feFlood flood-opacity="0" result="BackgroundImageFix"/>
<feBlend mode="normal" in="SourceGraphic" in2="BackgroundImageFix" result="shape"/>
<feGaussianBlur stdDeviation="50" result="effect1_foregroundBlur_588_337"/>
</filter>
<filter id="filter3_f_588_337" x="234" y="342" width="468" height="468" filterUnits="userSpaceOnUse" color-interpolation-filters="sRGB">
<feFlood flood-opacity="0" result="BackgroundImageFix"/>
<feBlend mode="normal" in="SourceGraphic" in2="BackgroundImageFix" result="shape"/>
<feGaussianBlur stdDeviation="50" result="effect1_foregroundBlur_588_337"/>
</filter>
<filter id="filter4_f_588_337" x="23" y="295" width="468" height="468" filterUnits="userSpaceOnUse" color-interpolation-filters="sRGB">
<feFlood flood-opacity="0" result="BackgroundImageFix"/>
<feBlend mode="normal" in="SourceGraphic" in2="BackgroundImageFix" result="shape"/>
<feGaussianBlur stdDeviation="50" result="effect1_foregroundBlur_588_337"/>
</filter>
<filter id="filter5_f_588_337" x="409" y="-48" width="428" height="428" filterUnits="userSpaceOnUse" color-interpolation-filters="sRGB">
<feFlood flood-opacity="0" result="BackgroundImageFix"/>
<feBlend mode="normal" in="SourceGraphic" in2="BackgroundImageFix" result="shape"/>
<feGaussianBlur stdDeviation="40" result="effect1_foregroundBlur_588_337"/>
</filter>
<filter id="filter6_f_588_337" x="86" y="-48" width="428" height="428" filterUnits="userSpaceOnUse" color-interpolation-filters="sRGB">
<feFlood flood-opacity="0" result="BackgroundImageFix"/>
<feBlend mode="normal" in="SourceGraphic" in2="BackgroundImageFix" result="shape"/>
<feGaussianBlur stdDeviation="40" result="effect1_foregroundBlur_588_337"/>
</filter>
<filter id="filter7_f_588_337" x="442" y="295" width="468" height="468" filterUnits="userSpaceOnUse" color-interpolation-filters="sRGB">
<feFlood flood-opacity="0" result="BackgroundImageFix"/>
<feBlend mode="normal" in="SourceGraphic" in2="BackgroundImageFix" result="shape"/>
<feGaussianBlur stdDeviation="50" result="effect1_foregroundBlur_588_337"/>
</filter>
<filter id="filter8_f_588_337" x="389" y="408" width="468" height="468" filterUnits="userSpaceOnUse" color-interpolation-filters="sRGB">
<feFlood flood-opacity="0" result="BackgroundImageFix"/>
<feBlend mode="normal" in="SourceGraphic" in2="BackgroundImageFix" result="shape"/>
<feGaussianBlur stdDeviation="50" result="effect1_foregroundBlur_588_337"/>
</filter>
<filter id="filter9_f_588_337" x="77" y="408" width="468" height="468" filterUnits="userSpaceOnUse" color-interpolation-filters="sRGB">
<feFlood flood-opacity="0" result="BackgroundImageFix"/>
<feBlend mode="normal" in="SourceGraphic" in2="BackgroundImageFix" result="shape"/>
<feGaussianBlur stdDeviation="50" result="effect1_foregroundBlur_588_337"/>
</filter>
<filter id="filter10_f_588_337" x="77" y="408" width="468" height="468" filterUnits="userSpaceOnUse" color-interpolation-filters="sRGB">
<feFlood flood-opacity="0" result="BackgroundImageFix"/>
<feBlend mode="normal" in="SourceGraphic" in2="BackgroundImageFix" result="shape"/>
<feGaussianBlur stdDeviation="50" result="effect1_foregroundBlur_588_337"/>
</filter>
<filter id="filter11_f_588_337" x="163" y="169" width="610" height="610" filterUnits="userSpaceOnUse" color-interpolation-filters="sRGB">
<feFlood flood-opacity="0" result="BackgroundImageFix"/>
<feBlend mode="normal" in="SourceGraphic" in2="BackgroundImageFix" result="shape"/>
<feGaussianBlur stdDeviation="100" result="effect1_foregroundBlur_588_337"/>
</filter>
<filter id="filter12_f_588_337" x="130" y="50" width="610" height="552" filterUnits="userSpaceOnUse" color-interpolation-filters="sRGB">
<feFlood flood-opacity="0" result="BackgroundImageFix"/>
<feBlend mode="normal" in="SourceGraphic" in2="BackgroundImageFix" result="shape"/>
<feGaussianBlur stdDeviation="100" result="effect1_foregroundBlur_588_337"/>
</filter>
</defs>
</svg>