<svg width="788" height="859" viewBox="0 0 788 859" fill="none" xmlns="http://www.w3.org/2000/svg">
<g filter="url(#filter0_i_233_452)">
<path d="M832 755H802V859H518V755H310V651H206V547H102V129H206V25H310V0H832V755ZM728 25H802V753H830V2H728V25ZM312 25H414V2H312V25ZM416 25H518V2H416V25ZM520 25H622V2H520V25ZM624 25H726V2H624V25Z" fill="white"/>
</g>
<path d="M624 130V131H625V130H624ZM520 26V25H519V26H520ZM624 26H625V25H624V26ZM624 130V129H528V130V131H624V130ZM520 122H521V26H520H519V122H520ZM520 26V27H624V26V25H520V26ZM624 26H623V130H624H625V26H624ZM528 130V129C524.134 129 521 125.866 521 122H520H519C519 126.971 523.029 131 528 131V130Z" fill="#D5CFFE"/>
<path d="M802 234V235H803V234H802ZM802 130H803V129H802V130ZM802 234V233H728V234V235H802V234ZM728 130V131H802V130V129H728V130ZM802 130H801V234H802H803V130H802Z" fill="#D5CFFE"/>
<path d="M728 234V235H729V234H728ZM624 130V129H623V130H624ZM728 130H729V129H728V130ZM728 234V233H632V234V235H728V234ZM624 226H625V130H624H623V226H624ZM624 130V131H728V130V129H624V130ZM728 130H727V234H728H729V130H728ZM632 234V233C628.134 233 625 229.866 625 226H624H623C623 230.971 627.029 235 632 235V234Z" fill="#D5CFFE"/>
<path d="M728 234V233H727V234H728ZM832 234H833V233H832V234ZM832 338V339H833V338H832ZM728 234V235H832V234V233H728V234ZM832 234H831V338H832H833V234H832ZM832 338V337H736V338V339H832V338ZM728 330H729V234H728H727V330H728ZM736 338V337C732.134 337 729 333.866 729 330H728H727C727 334.971 731.029 339 736 339V338Z" fill="#D5CFFE"/>
<path d="M208 234H207V235H208V234ZM208 130V129H207V130H208ZM312 130H313V129H312V130ZM304 234V233H208V234V235H304V234ZM208 234H209V130H208H207V234H208ZM208 130V131H312V130V129H208V130ZM312 130H311V226H312H313V130H312ZM304 234V235C308.971 235 313 230.971 313 226H312H311C311 229.866 307.866 233 304 233V234Z" fill="#D5CFFE"/>
<path d="M209 330C209 334.971 204.971 339 200 339H104V337H200C203.866 337 207 333.866 207 330H209ZM104 233H209L207 235H104V233ZM209 233V330C209 334.971 204.971 339 200 339V337C203.866 337 207 333.866 207 330V235L209 233ZM104 338V234V338Z" fill="#D5CFFE"/>
<path d="M802 650V651H803V650H802ZM728 650H727V651H728V650ZM802 442H803V441H802V442ZM802 650V649H728V650V651H802V650ZM728 650H729V450H728H727V650H728ZM736 442V443H802V442V441H736V442ZM802 442H801V650H802H803V442H802ZM728 450H729C729 446.134 732.134 443 736 443V442V441C731.029 441 727 445.029 727 450H728Z" fill="#D5CFFE"/>
<path d="M802 546H632C627.582 546 624 549.582 624 554V650H802V546Z" stroke="#D5CFFE" stroke-width="2"/>
<path d="M520 554C520 549.582 516.418 546 512 546H424C419.582 546 416 549.582 416 554V650H520V554Z" stroke="#D5CFFE" stroke-width="2"/>
<path d="M312 650V651H416V650V649H312V650Z" fill="#D5CFFE"/>
<rect width="282" height="104" transform="matrix(-1 0 0 1 802 650)" stroke="#D5CFFE" stroke-width="2"/>
<path d="M209 450C209 445.029 204.971 441 200 441H104V443H200C203.866 443 207 446.134 207 450H209ZM104 546H208H104ZM209 546V450C209 445.029 204.971 441 200 441V443C203.866 443 207 446.134 207 450V546H209ZM104 442V546V442Z" fill="#D5CFFE"/>
<path d="M312 650H208H312ZM208 545H304C308.971 545 313 549.029 313 554H311C311 550.134 307.866 547 304 547H208V545ZM304 545C308.971 545 313 549.029 313 554V650H311V554C311 550.134 307.866 547 304 547V545ZM208 650V546V650Z" fill="#D5CFFE"/>
<path d="M312 1H416V122C416 126.418 412.418 130 408 130H312V1Z" stroke="#D5CFFE" stroke-width="2"/>
<path d="M416 650V649H415V650H416ZM520 650H521V649H520V650ZM416 650V651H520V650V649H416V650ZM520 650H519V754H520H521V650H520ZM416 754H417V650H416H415V754H416Z" fill="#D5CFFE"/>
<path d="M624 754V753H623V754H624ZM728 754H729V753H728V754ZM624 754V755H728V754V753H624V754ZM728 754H727V859H728H729V754H728ZM624 859H625V754H624H623V859H624Z" fill="#D5CFFE"/>
<path d="M624 754V755H623V754H624ZM728 754H729V755H728V754ZM624 754V753H728V754V755H624V754ZM728 754H727V650H728H729V754H728ZM624 650H625V754H624H623V650H624Z" fill="#D5CFFE"/>
<rect x="728" y="1" width="104" height="129" stroke="#D5CFFE" stroke-width="2"/>
<defs>
<filter id="filter0_i_233_452" x="102" y="-4" width="738" height="863" filterUnits="userSpaceOnUse" color-interpolation-filters="sRGB">
<feFlood flood-opacity="0" result="BackgroundImageFix"/>
<feBlend mode="normal" in="SourceGraphic" in2="BackgroundImageFix" result="shape"/>
<feColorMatrix in="SourceAlpha" type="matrix" values="0 0 0 0 0 0 0 0 0 0 0 0 0 0 0 0 0 0 127 0" result="hardAlpha"/>
<feOffset dx="8" dy="-4"/>
<feGaussianBlur stdDeviation="6"/>
<feComposite in2="hardAlpha" operator="arithmetic" k2="-1" k3="1"/>
<feColorMatrix type="matrix" values="0 0 0 0 0.258824 0 0 0 0 0.211765 0 0 0 0 0.545098 0 0 0 0.12 0"/>
<feBlend mode="normal" in2="shape" result="effect1_innerShadow_233_452"/>
</filter>
</defs>
</svg>
